<?xml version="1.0" encoding="utf-8"?><svg xmlns="http://www.w3.org/2000/svg" xmlns:xlink="http://www.w3.org/1999/xlink"><symbol fill="none" viewBox="0 0 24 24" id="check" xmlns="http://www.w3.org/2000/svg"><path d="m5 13 4 4L19 7" stroke="#3DCE9A" stroke-width="2" stroke-linecap="round" stroke-linejoin="round"/></symbol><symbol fill="none" viewBox="0 0 40 40" id="fb" xmlns="http://www.w3.org/2000/svg"><rect width="40" height="40" rx="20" fill="#fff"/><path d="M21.657 20.365h3.722l.585-3.804h-4.308v-2.08c0-1.58.514-2.981 1.983-2.981H26V8.18c-.415-.057-1.292-.18-2.95-.18-3.462 0-5.491 1.84-5.491 6.03v2.53H14v3.805h3.559V30.82a14.33 14.33 0 0 0 2.151.18c.662 0 1.309-.06 1.947-.148V20.365Z" fill="#3B8CC3"/></symbol><symbol fill="none" viewBox="0 0 40 40" id="instagram" xmlns="http://www.w3.org/2000/svg"><rect width="40" height="40" rx="20" fill="#fff"/><path d="M20 11.807h4.096c.964 0 1.446.241 1.808.362.482.24.843.361 1.204.723.362.361.603.723.723 1.204.12.362.241.844.362 1.808v8.192c0 .964-.241 1.446-.362 1.808-.24.482-.361.843-.723 1.204-.361.362-.723.603-1.204.723-.362.12-.844.241-1.808.362h-8.192c-.964 0-1.446-.241-1.808-.362-.482-.24-.843-.361-1.204-.723-.362-.361-.603-.723-.723-1.204-.12-.362-.241-.844-.362-1.808v-8.192c0-.964.241-1.446.362-1.808.24-.482.361-.843.723-1.204.361-.362.723-.603 1.204-.723.362-.12.844-.241 1.808-.362H20ZM20 10h-4.096c-1.085 0-1.808.241-2.41.482a5.263 5.263 0 0 0-1.807 1.205c-.603.602-.844 1.084-1.205 1.807-.241.602-.361 1.325-.482 2.41v8.192c0 1.085.241 1.808.482 2.41a5.263 5.263 0 0 0 1.205 1.807c.602.603 1.084.844 1.807 1.205.602.241 1.325.361 2.41.482h8.192c1.085 0 1.808-.241 2.41-.482a5.263 5.263 0 0 0 1.807-1.205c.603-.602.844-1.084 1.205-1.807.241-.602.361-1.325.482-2.41v-8.192c0-1.085-.241-1.808-.482-2.41a5.263 5.263 0 0 0-1.205-1.807c-.602-.603-1.084-.844-1.807-1.205-.602-.241-1.325-.361-2.41-.482H20Z" fill="#3B8CC3"/><path d="M20 14.82A5.142 5.142 0 0 0 14.82 20c0 2.892 2.288 5.18 5.18 5.18s5.18-2.288 5.18-5.18-2.288-5.18-5.18-5.18Zm0 8.553A3.368 3.368 0 0 1 16.627 20 3.368 3.368 0 0 1 20 16.627 3.368 3.368 0 0 1 23.373 20c0 1.807-1.566 3.373-3.373 3.373Zm5.301-7.469a1.205 1.205 0 1 0 0-2.41 1.205 1.205 0 0 0 0 2.41Z" fill="#3B8CC3"/></symbol><symbol fill="none" viewBox="0 0 16 16" id="telegram" xmlns="http://www.w3.org/2000/svg"><path d="m14.629 3.698-2.012 9.618c-.152.679-.548.848-1.11.528l-3.066-2.29-1.48 1.442c-.163.166-.3.305-.616.305l.22-3.165 5.683-5.204c.247-.223-.054-.347-.384-.123L4.839 9.29l-3.024-.959c-.658-.208-.67-.667.137-.986L13.78 2.727c.548-.208 1.027.124.849.971Z" fill="#000"/></symbol><symbol fill="none" viewBox="0 0 40 40" id="vk" xmlns="http://www.w3.org/2000/svg"><rect width="40" height="40" rx="20" fill="#fff"/><path d="M20.983 27C13.466 27 9.179 21.745 9 13h3.765c.124 6.418 2.9 9.137 5.098 9.698V13h3.546v5.535c2.17-.238 4.452-2.76 5.221-5.535h3.546a10.789 10.789 0 0 1-1.698 4.003 10.558 10.558 0 0 1-3.126 2.976 10.895 10.895 0 0 1 3.563 2.893A11.153 11.153 0 0 1 31 27h-3.903a6.94 6.94 0 0 0-2.104-3.377 6.726 6.726 0 0 0-3.584-1.626V27h-.426Z" fill="#3B8CC3"/></symbol></svg>