<svg width="223" height="223" viewBox="0 0 223 223" fill="none" xmlns="http://www.w3.org/2000/svg">
<path d="M177.235 74.4303L177.247 74.4221L177.257 74.4134C177.917 73.874 178.511 73.5226 179.021 73.346C179.529 73.1697 179.914 73.1789 180.199 73.2996C180.479 73.4179 180.748 73.6799 180.953 74.1897C181.16 74.7057 181.288 75.4456 181.288 76.4464V146.629C181.288 147.754 181.128 148.508 180.894 148.99C180.669 149.455 180.382 149.66 180.077 149.737C179.749 149.82 179.326 149.773 178.819 149.577C178.317 149.383 177.777 149.059 177.244 148.652L177.244 148.652L177.235 148.645L145.929 125.804V97.2713L177.235 74.4303ZM39.2773 128.947V76.5909C39.2773 74.7292 40.8014 73.2111 42.6903 73.2111H119.046C130.664 73.2111 140.082 82.5414 140.082 94.0406V146.396C140.082 148.258 138.558 149.776 136.669 149.776H60.313C48.6954 149.776 39.2773 140.446 39.2773 128.947Z" fill="white" stroke="#AFB9D2"/>
</svg>
