<?xml version="1.0" encoding="utf-8"?><svg xmlns="http://www.w3.org/2000/svg" xmlns:xlink="http://www.w3.org/1999/xlink"><symbol fill="none" viewBox="0 0 24 24" id="check" xmlns="http://www.w3.org/2000/svg"><path d="m5 13 4 4L19 7" stroke="#3DCE9A" stroke-width="2" stroke-linecap="round" stroke-linejoin="round"/></symbol><symbol fill="none" viewBox="0 0 40 40" id="fb" xmlns="http://www.w3.org/2000/svg"><rect width="40" height="40" rx="20" fill="#fff"/><path d="M21.657 20.365h3.722l.585-3.804h-4.308v-2.08c0-1.58.514-2.981 1.983-2.981H26V8.18c-.415-.057-1.292-.18-2.95-.18-3.462 0-5.491 1.84-5.491 6.03v2.53H14v3.805h3.559V30.82a14.33 14.33 0 0 0 2.151.18c.662 0 1.309-.06 1.947-.148V20.365Z" fill="#3B8CC3"/></symbol><symbol fill="none" viewBox="0 0 32 32" id="icq" xmlns="http://www.w3.org/2000/svg"><circle cx="16" cy="16" r="16" fill="#40AA1A"/><path d="m25.241 17.3-.132-.209c-.212-.31-.422-.622-.74-.83-.265-.181-.582-.31-.872-.44.819-.39 1.38-.934 1.644-1.635.185-.571-.153-1.037-.153-1.504v-.052c0-.52-.719-.856-1.38-1.038-.397-.078-.835-.078-1.232-.053l-.868.182.294-.648c.264-.83.187-1.634-.262-2.387l-.08-.129c-.396-.65-.977-1.038-1.77-1.245-.82-.208-1.517-.13-2.257.259-.742.39-1.44.986-1.44 1.764v.051l-.094.182-.14-.182-.281-.466c-.423-.649-.96-1.038-1.621-1.22-.582-.13-1.061-.077-1.564.182-.554.337-.874.857-1.007 1.583-.132.752 0 1.479.396 2.204l.184.26-.634-.208c-.793-.182-1.533-.077-2.273.312-.767.389-1.243.934-1.56 1.686-.291.726-.264 1.426.105 2.075.16.286.397.52.608.675.318.31.714.493 1.19.57l.185.052-.396.338c-.37.312-.582.7-.714 1.09-.132.466-.08.933.185 1.375.133.207.264.388.476.519.212.18.476.31.793.337.582.13 1.19.13 1.85-.079l-.476.78-.132.336c-.264.83-.186 1.556.211 2.308.185.287.397.546.608.779.318.285.713.467 1.19.597.792.207 1.585.18 2.353-.208.74-.389 1.215-1.013 1.453-1.79l.026-.155c.503.543.978.907 1.508 1.037.528.155 1.056.13 1.532-.182.45-.26.767-.7.925-1.246.132-.57.132-1.14 0-1.787.264.18.53.31.846.387.845.26 1.586.233 2.326-.156.714-.388 1.19-1.012 1.427-1.816.213-.778.16-1.53-.237-2.256Zm-3.832-4.333.316-.13a2.65 2.65 0 0 1 1.402-.207c.448.052.767.258.924.57l.106.337-.053.26c-.184.467-.581.83-1.242 1.115-.264.13-.554.182-.871.233l-3.252.39-.053-.182-.053-.078.106-.13 2.67-2.178Zm-4.495-3.269c.132-.518.503-.908.979-1.167a1.808 1.808 0 0 1 1.506-.13c.556.13.951.415 1.19.856.132.26.21.571.21.908l-.078.57a3.625 3.625 0 0 1-.396.78l-2.379 2.853c-.238-.182-.502-.312-.767-.441l-.265-2.931-.025-1.039.025-.259Zm-4.518.078c.025-.467.21-.778.527-.96.16-.13.397-.13.608-.026.476.13.873.467 1.19 1.116.132.26.264.519.317.83l.528 3.062-.395.13-2.354-2.518-.132-.259c-.211-.467-.343-.908-.29-1.375Zm-3.887 5.5c-.211-.39-.211-.778-.052-1.167.184-.494.528-.883 1.03-1.09.476-.26.95-.337 1.48-.208l.714.285 2.326 1.66c-.211.26-.344.519-.424.78l-3.806.466-.264-.051c-.475-.079-.793-.285-1.004-.676Zm7.483 7.653-.093.26a1.913 1.913 0 0 1-1.012 1.062 1.97 1.97 0 0 1-1.47.183c-.53-.13-.935-.441-1.146-.857-.132-.258-.241-.57-.241-.882l.128-.596c.054-.26.186-.52.397-.727l2.22-2.595c.264.13.595.26.886.287.052.881.331 1.817.331 2.827v1.038Zm-1.008-5.188a1.635 1.635 0 0 1-.527-1.22c0-.467.184-.856.527-1.22a1.83 1.83 0 0 1 1.243-.466c.476 0 .925.182 1.217.466.369.364.528.753.528 1.22 0 .467-.16.908-.528 1.22-.344.337-.74.518-1.217.518-.502 0-.925-.18-1.243-.518Zm4.892 4.54c-.053.467-.212.804-.53.934-.184.129-.396.129-.607.104-.503-.13-.9-.519-1.19-1.142l-.317-.856-.396-2.257.448-.157.345-.18 1.11 1.114.687.83.132.26c.238.441.37.857.318 1.35Zm4.546-3.037c-.132.52-.45.91-.9 1.116-.474.26-.951.312-1.479.13a1.302 1.302 0 0 1-.714-.415l-2.776-2.256.186-.39.08-.311 2.986-.26 1.057-.025.265.025c.396.13.767.363.977.752.264.287.397.676.397 1.118l-.08.516Z" fill="#fff"/></symbol><symbol fill="none" viewBox="0 0 40 40" id="instagram" xmlns="http://www.w3.org/2000/svg"><rect width="40" height="40" rx="20" fill="#fff"/><path d="M20 11.807h4.096c.964 0 1.446.241 1.808.362.482.24.843.361 1.204.723.362.361.603.723.723 1.204.12.362.241.844.362 1.808v8.192c0 .964-.241 1.446-.362 1.808-.24.482-.361.843-.723 1.204-.361.362-.723.603-1.204.723-.362.12-.844.241-1.808.362h-8.192c-.964 0-1.446-.241-1.808-.362-.482-.24-.843-.361-1.204-.723-.362-.361-.603-.723-.723-1.204-.12-.362-.241-.844-.362-1.808v-8.192c0-.964.241-1.446.362-1.808.24-.482.361-.843.723-1.204.361-.362.723-.603 1.204-.723.362-.12.844-.241 1.808-.362H20ZM20 10h-4.096c-1.085 0-1.808.241-2.41.482a5.263 5.263 0 0 0-1.807 1.205c-.603.602-.844 1.084-1.205 1.807-.241.602-.361 1.325-.482 2.41v8.192c0 1.085.241 1.808.482 2.41a5.263 5.263 0 0 0 1.205 1.807c.602.603 1.084.844 1.807 1.205.602.241 1.325.361 2.41.482h8.192c1.085 0 1.808-.241 2.41-.482a5.263 5.263 0 0 0 1.807-1.205c.603-.602.844-1.084 1.205-1.807.241-.602.361-1.325.482-2.41v-8.192c0-1.085-.241-1.808-.482-2.41a5.263 5.263 0 0 0-1.205-1.807c-.602-.603-1.084-.844-1.807-1.205-.602-.241-1.325-.361-2.41-.482H20Z" fill="#3B8CC3"/><path d="M20 14.82A5.142 5.142 0 0 0 14.82 20c0 2.892 2.288 5.18 5.18 5.18s5.18-2.288 5.18-5.18-2.288-5.18-5.18-5.18Zm0 8.553A3.368 3.368 0 0 1 16.627 20 3.368 3.368 0 0 1 20 16.627 3.368 3.368 0 0 1 23.373 20c0 1.807-1.566 3.373-3.373 3.373Zm5.301-7.469a1.205 1.205 0 1 0 0-2.41 1.205 1.205 0 0 0 0 2.41Z" fill="#3B8CC3"/></symbol><symbol fill="none" viewBox="0 0 16 16" id="telegram" xmlns="http://www.w3.org/2000/svg"><path d="m14.629 3.698-2.012 9.618c-.152.679-.548.848-1.11.528l-3.066-2.29-1.48 1.442c-.163.166-.3.305-.616.305l.22-3.165 5.683-5.204c.247-.223-.054-.347-.384-.123L4.839 9.29l-3.024-.959c-.658-.208-.67-.667.137-.986L13.78 2.727c.548-.208 1.027.124.849.971Z" fill="#000"/></symbol><symbol fill="none" viewBox="0 0 32 32" id="telegram2" xmlns="http://www.w3.org/2000/svg"><circle cx="16" cy="16" r="16" fill="#3B8CC3"/><path d="m7.482 16.297 3.678 1.372 1.434 4.613c.063.312.437.374.686.187l2.057-1.683c.188-.187.5-.187.749 0l3.678 2.68c.25.188.623.063.686-.249l2.743-13.092c.063-.312-.25-.624-.561-.5l-15.15 5.861c-.374.125-.374.686 0 .81Zm4.925.686 7.232-4.427c.125-.062.25.125.125.187l-5.923 5.549c-.187.187-.374.436-.374.748l-.187 1.497c0 .187-.312.249-.374 0l-.748-2.744c-.187-.311-.063-.686.25-.81Z" fill="#fff"/></symbol><symbol fill="none" viewBox="0 0 40 40" id="vk" xmlns="http://www.w3.org/2000/svg"><rect width="40" height="40" rx="20" fill="#fff"/><path d="M20.983 27C13.466 27 9.179 21.745 9 13h3.765c.124 6.418 2.9 9.137 5.098 9.698V13h3.546v5.535c2.17-.238 4.452-2.76 5.221-5.535h3.546a10.789 10.789 0 0 1-1.698 4.003 10.558 10.558 0 0 1-3.126 2.976 10.895 10.895 0 0 1 3.563 2.893A11.153 11.153 0 0 1 31 27h-3.903a6.94 6.94 0 0 0-2.104-3.377 6.726 6.726 0 0 0-3.584-1.626V27h-.426Z" fill="#3B8CC3"/></symbol><symbol fill="none" viewBox="0 0 32 32" id="yandex" xmlns="http://www.w3.org/2000/svg"><path d="M32 16c0 8.837-7.163 16-16 16S0 24.837 0 16 7.163 0 16 0s16 7.163 16 16Z" fill="#FD2734"/><path d="M17.941 16.842h-1.123c-1.765 0-3.476-1.228-3.476-4.3 0-3.2 1.605-4.506 3.236-4.506h1.363v8.806Zm1.765-10.444h-3.048c-2.996 0-5.535 2.176-5.535 6.4 0 2.534 1.23 4.403 3.423 5.324l-4.092 7.066c-.134.23 0 .41.214.41h1.898c.16 0 .268-.051.322-.18l3.717-6.937h1.336v6.937c0 .077.08.18.188.18h1.658c.16 0 .213-.077.213-.205V6.653c0-.178-.106-.255-.294-.255Z" fill="#fff"/></symbol><symbol fill="none" viewBox="0 0 32 32" id="zoom" xmlns="http://www.w3.org/2000/svg"><g clip-path="url(#ia)"><path d="M16 32c8.837 0 16-7.163 16-16S24.837 0 16 0 0 7.163 0 16s7.163 16 16 16Z" fill="#2D8CFF"/><path fill-rule="evenodd" clip-rule="evenodd" d="m25.39 10.622-4.521 3.3v4.167l4.522 3.299c.32.244.695.32.695-.347V10.97c0-.595-.301-.67-.695-.348ZM5.565 18.503V10.99a.56.56 0 0 1 .562-.556h10.957c1.706 0 3.09 1.37 3.09 3.06v7.513a.56.56 0 0 1-.561.557H8.655c-1.706 0-3.09-1.37-3.09-3.06Z" fill="#fff"/></g><defs><clipPath id="ia"><path fill="#fff" d="M0 0h32v32H0z"/></clipPath></defs></symbol></svg>