<?xml version="1.0" encoding="utf-8"?><svg xmlns="http://www.w3.org/2000/svg" xmlns:xlink="http://www.w3.org/1999/xlink"><symbol viewBox="0 0 24 24" id="arrow-left" xmlns="http://www.w3.org/2000/svg"><path d="m5 12 6-6m-6 6 6 6m-6-6h14"/></symbol><symbol viewBox="0 0 24 24" id="arrow-left2" xmlns="http://www.w3.org/2000/svg"><path d="m5 12 6-6m-6 6 6 6m-6-6h14"/></symbol><symbol viewBox="0 0 24 24" id="arrow-load-more" xmlns="http://www.w3.org/2000/svg"><path d="M23 4v6h-6"/><path d="M20.49 15a9 9 0 1 1-2.13-9.36L23 10"/></symbol><symbol viewBox="0 0 24 24" id="arrow-right" xmlns="http://www.w3.org/2000/svg"><path d="m19 12-6-6m6 6-6 6m6-6H5"/></symbol><symbol viewBox="0 0 24 24" id="arrow-right2" xmlns="http://www.w3.org/2000/svg"><path d="m19 12-6-6m6 6-6 6m6-6H5"/></symbol><symbol viewBox="0 0 22 24" id="basket" xmlns="http://www.w3.org/2000/svg"><g clip-path="url(#afa)"><path d="M10.363 18.443a2.046 2.046 0 0 0-2.045 2.042 2.046 2.046 0 0 0 4.09 0 2.046 2.046 0 0 0-2.045-2.042Zm6.134 0a2.046 2.046 0 0 0-2.045 2.042 2.046 2.046 0 0 0 4.089 0 2.046 2.046 0 0 0-2.044-2.042Zm3.978-8.199L7.413 6.891a.614.614 0 0 0-.75.73L8.67 16.4h-.786L5.482 5.895a.613.613 0 0 0-.474-.464l-4.27-.882A.614.614 0 0 0 .489 5.75l3.885.802L6.797 17.15a.613.613 0 0 0 .598.477h12.07a.615.615 0 0 0 .607-.53l.858-6.175a.613.613 0 0 0-.455-.678Zm-8.14 3.91a.613.613 0 0 1-1.227 0v-2.696a.613.613 0 0 1 1.227 0v2.696Zm2.625 0a.613.613 0 0 1-1.227 0v-1.88a.613.613 0 0 1 1.227 0v1.88Zm2.625 0a.613.613 0 0 1-1.227 0v-1.226a.613.613 0 0 1 1.227 0v1.226Z"/></g><path fill-rule="evenodd" clip-rule="evenodd" d="M16.268 4.568a2.996 2.996 0 0 0-1.693-.523c-.627 0-1.21.193-1.693.523-.28-.843-.492-1.752-.492-2.383C12.39.98 13.37 0 14.575 0s2.185.98 2.185 2.185c0 .631-.212 1.54-.492 2.383Zm-4.722 2.274.024.006v-.011l-.024.005Zm4.972 1.217c-1.333-.33-2.766-.681-4.129-1.013a2.185 2.185 0 1 1 4.129 1.013Zm4.436 1.103c-.866-.217-2.155-.538-3.618-.9a2.995 2.995 0 0 0 .243-1.425c.87.18 1.762.45 2.308.765.596.344.969.928 1.067 1.56ZM9.869 6.439c-.36-.086-.706-.167-1.03-.243a2.19 2.19 0 0 1-.376-2.667 2.188 2.188 0 0 1 3.147-.7c.098.738.338 1.599.61 2.353a3.01 3.01 0 0 0-.449.774c-.628.113-1.305.278-1.902.483Zm10.124.075a3.43 3.43 0 0 1-.217.114c-.696-.295-1.587-.526-2.397-.672a3.01 3.01 0 0 0-.449-.774c.262-.727.494-1.553.599-2.273.095-.067.189-.128.278-.18a2.188 2.188 0 0 1 2.986.8 2.188 2.188 0 0 1-.8 2.985Z"/><defs><clipPath id="afa"><path transform="translate(0 3.064)" d="M0 0h20.936v20.936H0z"/></clipPath></defs></symbol><symbol viewBox="0 0 24 24" id="calendar" xmlns="http://www.w3.org/2000/svg"><path d="M19 4H5a2 2 0 0 0-2 2v14a2 2 0 0 0 2 2h14a2 2 0 0 0 2-2V6a2 2 0 0 0-2-2Zm-3-2v4M8 2v4m-5 4h18" stroke-linecap="round" stroke-linejoin="round"/></symbol><symbol viewBox="0 0 24 24" id="check" xmlns="http://www.w3.org/2000/svg"><path d="m5 13 4 4L19 7"/></symbol><symbol viewBox="0 0 16 30" id="chevron-left" xmlns="http://www.w3.org/2000/svg"><path d="M15 29 1 15 15 1"/></symbol><symbol viewBox="0 0 24 24" id="chevron-left-2" xmlns="http://www.w3.org/2000/svg"><path d="m15 6-6 6 6 6"/></symbol><symbol viewBox="0 0 16 30" id="chevron-right" xmlns="http://www.w3.org/2000/svg"><path d="m1 1 14 14L1 29"/></symbol><symbol viewBox="0 0 20 20" id="close" xmlns="http://www.w3.org/2000/svg"><path d="m5 5 5 5m5 5-5-5m0 0 5-5m-5 5-5 5"/></symbol><symbol viewBox="0 0 24 24" id="cross" xmlns="http://www.w3.org/2000/svg"><path d="m6 6 6 6m6 6-6-6m0 0 6-6m-6 6-6 6"/></symbol><symbol viewBox="0 0 60 60" id="doctor" xmlns="http://www.w3.org/2000/svg"><path d="M9.49 37.254A10.384 10.384 0 0 0 8.441 57.8a3.992 3.992 0 0 0 3.554 2.2h24.002a3.992 3.992 0 0 0 3.553-2.2 10.383 10.383 0 0 0-1.047-20.546 47.775 47.775 0 0 0-7.607-.394 35.36 35.36 0 0 1-.719-4.366 14.773 14.773 0 0 0 3.793-6.6c.337.07.682.106 1.027.106v4a1 1 0 0 0 1 1c.45 0 .026.211 7.32-5H55a5.006 5.006 0 0 0 5-5V5a5.006 5.006 0 0 0-5-5H34.998a4.978 4.978 0 0 0-3.454 1.4A23.104 23.104 0 0 0 23.997 0c-.347 0-8.538.05-11.801 4.4-2.1 2.806-1.49 10.057-1.254 12.2-.94.944-.946 2.694-.946 3.333 0 4.384 2.66 5.6 4.009 5.936a14.64 14.64 0 0 0 3.8 6.643 34.787 34.787 0 0 1-.7 4.352 49.231 49.231 0 0 0-7.616.39ZM31.951 48c.304.196.557.46.74.771a34.808 34.808 0 0 0-5.567 6.578 57.648 57.648 0 0 1 3.56-16.28 8.109 8.109 0 0 1 3.92 3.45 8.014 8.014 0 0 0-3.556 4.17.969.969 0 0 0 .904 1.311Zm-6.935 10h-2.04a59.72 59.72 0 0 0-2.755-16.7c2.429.94 5.12.94 7.548 0A59.764 59.764 0 0 0 25.017 58Zm-8.073-11.316a8.013 8.013 0 0 0-3.56-4.171 8.053 8.053 0 0 1 3.925-3.45 57.402 57.402 0 0 1 3.56 16.282 34.757 34.757 0 0 0-5.569-6.58c.178-.3.414-.56.696-.765a1 1 0 0 0 .948-1.316ZM9.996 56v-6a1 1 0 0 0-2 0v5.64A8.387 8.387 0 0 1 9.66 39.246l4.16-.362a11.51 11.51 0 0 0-2.747 3.728 1 1 0 0 0 .606 1.337 5.56 5.56 0 0 1 2.982 2.566 6.34 6.34 0 0 0-1.561 2.038 1 1 0 0 0 .295 1.247c2.691 2.018 5.437 6.023 6.817 8.2h-8.217a2 2 0 0 1-2-2Zm36.003-8.39a8.4 8.4 0 0 1-6 8.03V50a1 1 0 0 0-2.001 0v6a2 2 0 0 1-2 2H27.78c1.38-2.177 4.127-6.182 6.818-8.2a1 1 0 0 0 .3-1.247 6.332 6.332 0 0 0-1.566-2.041 5.523 5.523 0 0 1 2.987-2.563 1 1 0 0 0 .606-1.337 11.519 11.519 0 0 0-2.743-3.725l4.153.359A8.36 8.36 0 0 1 46 47.61ZM34.998 2H55a3 3 0 0 1 3 3v16a3 3 0 0 1-3 3c-13.064 0-12.212-.08-12.583.186l-5.42 3.871V25a1 1 0 0 0-1-1h-1a3 3 0 0 1-3-3V5a3 3 0 0 1 3-3ZM13.796 5.6C16.458 2.051 23.923 2 23.996 2a21.8 21.8 0 0 1 6.38 1.1 4.96 4.96 0 0 0-.37 1.811 5.693 5.693 0 0 0-3.447-.169c-5.111.873-6.11-1.088-9.01.361-2.308 1.156-3.553 4.416-3.553 6.897a17.175 17.175 0 0 1-.783 4.149 3.043 3.043 0 0 0-.315-.089c-.287-2.866-.525-8.56.898-10.46Zm-1.8 14.33c0-1.621.36-1.932.357-1.932.242.015.473.104.663.254a35.66 35.66 0 0 0 .425 5.217c-.764-.529-1.445-1.557-1.445-3.539Zm4.764 7.641c-1.506-3.165-1.764-6.871-1.764-10.413a20.39 20.39 0 0 0 1-5.158c0-1.875.983-4.374 2.447-5.105 2.047-1.026 3.046.745 8.451-.18a3.45 3.45 0 0 1 3.1.468V21a4.992 4.992 0 0 0 2.13 4.082C30.964 29.222 28.36 33 23.997 33c-3.108 0-5.543-1.825-7.237-5.429Zm11.563 6.294c.166 1.31.408 2.61.725 3.892-1.724 3-8.37 3.02-10.094 0 .312-1.28.55-2.577.713-3.884a8.838 8.838 0 0 0 8.656-.008Z"/><path d="M38.998 16h3v3a2 2 0 0 0 2 2h2A2 2 0 0 0 48 19v-3h3a2 2 0 0 0 2-2v-2a2 2 0 0 0-2-2h-3V7a2 2 0 0 0-2-2h-2a2 2 0 0 0-2 2v3h-3a2 2 0 0 0-2.001 2v2a2 2 0 0 0 2 2Zm0-4h3a2 2 0 0 0 2-2V7h2v3A2 2 0 0 0 48 12h3v2h-3a2 2 0 0 0-2 2v3h-2v-3a2 2 0 0 0-2-2h-3v-2Z"/></symbol><symbol viewBox="0 0 24 24" id="eye" xmlns="http://www.w3.org/2000/svg"><path fill-rule="evenodd" clip-rule="evenodd" d="M5.23 15.658A13.61 13.61 0 0 1 2.552 12 13.61 13.61 0 0 1 5.23 8.342C6.787 6.842 9.01 5.5 12 5.5c2.99 0 5.213 1.343 6.77 2.842A13.611 13.611 0 0 1 21.448 12a13.61 13.61 0 0 1-2.678 3.658c-1.557 1.5-3.78 2.842-6.77 2.842-2.99 0-5.213-1.343-6.77-2.842ZM12 4.5c-3.318 0-5.778 1.499-7.464 3.122A14.59 14.59 0 0 0 1.64 11.59a.935.935 0 0 0 0 .82c.285.59 1.217 2.35 2.897 3.968C6.222 18 8.682 19.5 12 19.5c3.318 0 5.778-1.499 7.464-3.122a14.587 14.587 0 0 0 2.897-3.968.935.935 0 0 0 0-.82 14.588 14.588 0 0 0-2.897-3.968C17.778 6 15.318 4.5 12 4.5ZM9.5 12a2.5 2.5 0 1 1 5 0 2.5 2.5 0 0 1-5 0ZM12 8.5a3.5 3.5 0 1 0 0 7 3.5 3.5 0 0 0 0-7Z"/></symbol><symbol viewBox="0 0 24 24" id="eye-off" xmlns="http://www.w3.org/2000/svg"><path fill-rule="evenodd" clip-rule="evenodd" d="M3.354 2.646a.5.5 0 1 0-.708.708l18 18a.5.5 0 0 0 .708-.708l-3.182-3.181c2.51-1.83 3.84-4.335 4.189-5.055a.936.936 0 0 0 0-.82 14.59 14.59 0 0 0-2.897-3.968C17.778 6 15.318 4.5 12 4.5c-2.078 0-3.824.589-5.254 1.431a.505.505 0 0 0-.063.044l-3.33-3.329ZM7.41 6.703l2.494 2.494a3.5 3.5 0 0 1 4.9 4.9l2.652 2.651c2.364-1.67 3.646-4.037 3.992-4.748a13.611 13.611 0 0 0-2.678-3.658C17.213 6.842 14.99 5.5 12 5.5a9.198 9.198 0 0 0-4.59 1.203Zm6.676 6.676a2.5 2.5 0 0 0-3.465-3.465l3.465 3.465ZM4.325 8.54a.5.5 0 0 1 .055.705A13.583 13.583 0 0 0 2.552 12a13.61 13.61 0 0 0 2.678 3.658C6.787 17.158 9.01 18.5 12 18.5a9.42 9.42 0 0 0 1.9-.19.5.5 0 0 1 .2.98 10.44 10.44 0 0 1-2.1.21c-3.318 0-5.778-1.499-7.464-3.122A14.589 14.589 0 0 1 1.64 12.41a.94.94 0 0 1 .001-.822 14.53 14.53 0 0 1 1.98-2.992.5.5 0 0 1 .705-.055Z"/></symbol><symbol viewBox="0 0 24 24" id="fb" xmlns="http://www.w3.org/2000/svg"><path d="M13.657 12.83h3.722l.585-3.652h-4.308V7.182c0-1.517.514-2.862 1.983-2.862H18V1.133c-.415-.055-1.292-.173-2.95-.173-3.462 0-5.491 1.766-5.491 5.788v2.43H6v3.652h3.559v10.038c.704.103 1.418.172 2.151.172.662 0 1.309-.058 1.947-.142V12.83Z"/></symbol><symbol viewBox="0 0 60 60" id="info" xmlns="http://www.w3.org/2000/svg"><g clip-path="url(#ara)"><path d="M59.142 53.687h-4.956V29.298a3.38 3.38 0 0 0-3.378-3.375h-5.882C54.87 7.756 31.302-9.316 17.116 5.843a.878.878 0 1 0 1.317 1.163C23.569 1.202 32.286.11 38.713 4.469c11.605 7.862 7.433 26.061-6.42 28.1a.88.88 0 0 0-.598.375l-1.678 2.47-1.581-2.44a.88.88 0 0 0-.614-.392 15.338 15.338 0 0 1-6.493-2.515c-6.211-4.065-8.581-12.723-5.325-19.372a.878.878 0 1 0-1.59-.748c-2.398 5.013-2.126 11.18.704 15.976H9.232a3.38 3.38 0 0 0-3.377 3.375v24.389H.899a.879.879 0 0 0-.878.878v2.06A3.38 3.38 0 0 0 3.398 60h53.245a3.38 3.38 0 0 0 3.377-3.375v-2.06a.878.878 0 0 0-.878-.878ZM43.76 27.673a.872.872 0 0 0 .108.007h6.94c.893 0 1.62.726 1.62 1.618v24.389h-2.399V30.963a.879.879 0 0 0-.879-.878h-7.615a17.177 17.177 0 0 0 2.225-2.412ZM7.613 29.298c0-.892.727-1.618 1.62-1.618h6.94a.874.874 0 0 0 .11-.007c.661.87 1.404 1.678 2.223 2.412H10.89a.879.879 0 0 0-.88.878v22.724H7.614V29.298Zm50.65 27.327c0 .892-.727 1.618-1.62 1.618H3.398c-.893 0-1.62-.726-1.62-1.618v-1.182h39.46a.879.879 0 1 0 0-1.756H11.77V31.84h8.68a.876.876 0 0 0 .3-.052 17.049 17.049 0 0 0 6.424 2.47l2.089 3.222a.88.88 0 0 0 1.465.016l2.208-3.252a17.272 17.272 0 0 0 6.272-2.406c.08.008 8.983 0 9.064.002v21.846H45.92a.879.879 0 1 0 0 1.756h12.343v1.182Z"/><path d="M26.972 24.96c.168 4.043 5.93 4.04 6.097 0v-7.105c-.168-4.042-5.93-4.039-6.097 0v7.106Zm1.758-7.105c.07-1.711 2.51-1.71 2.58 0v7.106c-.07 1.711-2.51 1.71-2.58 0v-7.105Zm1.29-4.47a3.051 3.051 0 0 0 3.049-3.046c-.168-4.042-5.93-4.04-6.097 0a3.051 3.051 0 0 0 3.048 3.046Zm0-4.336c.712 0 1.29.579 1.29 1.29-.07 1.711-2.51 1.71-2.58 0 0-.711.578-1.29 1.29-1.29ZM16.174 38.946h6.538c1.164-.04 1.163-1.717 0-1.756h-6.538c-1.164.04-1.163 1.716 0 1.756Zm27.693-1.756H37.33c-1.163.04-1.163 1.716 0 1.756h6.538c1.164-.04 1.163-1.717 0-1.756Zm.001 5.093H16.174c-1.164.04-1.163 1.717 0 1.757h27.694c1.164-.04 1.163-1.717 0-1.757Zm-5.859 5.094H22.034c-1.164.04-1.163 1.717 0 1.757h15.975c1.163-.04 1.163-1.717 0-1.757Z"/></g><defs><clipPath id="ara"><path d="M0 0h60v60H0z"/></clipPath></defs></symbol><symbol viewBox="0 0 24 24" id="instagram" xmlns="http://www.w3.org/2000/svg"><path d="M12 3.807h4.096c.964 0 1.446.241 1.808.362.482.24.843.361 1.204.723.362.361.603.722.723 1.204.12.362.241.844.362 1.808v8.192c0 .964-.241 1.446-.362 1.808-.24.482-.361.843-.723 1.204-.361.362-.723.603-1.204.723-.362.12-.844.241-1.808.362H7.904c-.964 0-1.446-.241-1.808-.362-.482-.24-.843-.361-1.204-.723-.362-.361-.603-.723-.723-1.204-.12-.362-.241-.844-.362-1.808V7.904c0-.964.241-1.446.362-1.808.24-.482.361-.843.723-1.204.361-.362.722-.603 1.204-.723.362-.12.844-.241 1.808-.362H12ZM12 2H7.904c-1.085 0-1.808.241-2.41.482a5.26 5.26 0 0 0-1.807 1.205c-.603.602-.844 1.084-1.205 1.807-.241.602-.362 1.325-.482 2.41v8.192c0 1.085.241 1.808.482 2.41a5.262 5.262 0 0 0 1.205 1.807c.602.603 1.084.844 1.807 1.205.602.241 1.325.361 2.41.482h8.192c1.085 0 1.808-.241 2.41-.482a5.263 5.263 0 0 0 1.807-1.205c.603-.602.844-1.084 1.205-1.807.241-.602.361-1.325.482-2.41V7.904c0-1.085-.241-1.808-.482-2.41a5.261 5.261 0 0 0-1.205-1.807c-.602-.603-1.084-.844-1.807-1.205-.602-.241-1.325-.362-2.41-.482H12Z"/><path d="M12 6.82A5.142 5.142 0 0 0 6.82 12c0 2.892 2.288 5.18 5.18 5.18s5.18-2.288 5.18-5.18S14.893 6.82 12 6.82Zm0 8.553A3.368 3.368 0 0 1 8.627 12 3.368 3.368 0 0 1 12 8.627 3.368 3.368 0 0 1 15.373 12c0 1.807-1.566 3.373-3.373 3.373Zm5.301-7.469a1.205 1.205 0 1 0 0-2.41 1.205 1.205 0 0 0 0 2.41Z"/></symbol><symbol viewBox="0 0 24 24" id="mail" xmlns="http://www.w3.org/2000/svg"><g stroke-linecap="round" stroke-linejoin="round"><path d="M4 4h16c1.1 0 2 .9 2 2v12c0 1.1-.9 2-2 2H4c-1.1 0-2-.9-2-2V6c0-1.1.9-2 2-2Z"/><path d="m22 6-10 7L2 6"/></g></symbol><symbol viewBox="0 0 60 60" id="money" xmlns="http://www.w3.org/2000/svg"><g clip-path="url(#aua)"><path d="M42.84 41.687H25.615a.879.879 0 1 0 0 1.759H42.84a6.16 6.16 0 0 0 6.153-6.154v-13.2a6.16 6.16 0 0 0-6.153-6.154h-4.992l-11.344-5.791a2.307 2.307 0 0 0-3.1 1.005l-2.442 4.786h-3.255c-1.131 0-2.052.92-2.052 2.05v21.406c0 1.131.92 2.052 2.052 2.052h4.041a.879.879 0 1 0 0-1.759h-4.041a.293.293 0 0 1-.293-.293V19.99c0-.162.131-.293.293-.293H42.84a4.4 4.4 0 0 1 4.395 4.395v2.859h-7.002a4.072 4.072 0 0 0-4.067 4.067v1.171a4.072 4.072 0 0 0 4.067 4.067h7.002v1.036a4.4 4.4 0 0 1-4.395 4.396ZM24.97 13.951a.547.547 0 0 1 .735-.238l8.276 4.225H22.936l2.035-3.987Zm15.263 20.546a2.311 2.311 0 0 1-2.309-2.308v-1.172a2.311 2.311 0 0 1 2.309-2.309h7.002v5.79h-7.002Z"/><path d="M57.884 19.3a27.932 27.932 0 0 0-6.039-9.085 28.732 28.732 0 0 0-2.01-1.84.88.88 0 0 0-1.123 1.353 26.959 26.959 0 0 1 1.886 1.726c4.93 4.963 7.644 11.55 7.644 18.546 0 7.03-2.738 13.64-7.71 18.611-4.97 4.972-11.58 7.71-18.61 7.71-5.554 0-10.844-1.7-15.326-4.92l1.039-1.35c4.181 2.989 9.112 4.567 14.287 4.567 6.577 0 12.764-2.572 17.421-7.24 4.657-4.669 7.213-10.862 7.196-17.44C56.505 16.432 45.49 5.417 31.984 5.383h-.064c-3.927 0-7.683.902-11.164 2.68a24.894 24.894 0 0 0-8.544 7.205.88.88 0 0 0 1.407 1.054c4.309-5.752 11.148-9.181 18.305-9.181h.056c12.541.031 22.77 10.26 22.8 22.801.016 6.107-2.357 11.858-6.682 16.194-4.325 4.335-10.07 6.723-16.176 6.723-4.934 0-9.629-1.544-13.576-4.466a1.345 1.345 0 0 0-1.857.263l-1.547 2.012a1.33 1.33 0 0 0-.265 1.001c.05.36.238.678.53.895 4.86 3.607 10.64 5.514 16.715 5.514 7.5 0 14.55-2.92 19.854-8.224C57.08 44.551 60 37.5 60 30c0-3.693-.712-7.294-2.116-10.7Z"/><path d="M11.504 25.751a1.216 1.216 0 0 0-.75-.562 1.217 1.217 0 0 0-.929.133l-.318.188a22.624 22.624 0 0 1 2.015-5.816.879.879 0 1 0-1.568-.795 24.382 24.382 0 0 0-2.48 8.218.88.88 0 0 0 1.321.859l1.468-.87.868 1.465-5.019 2.974-4.134-3.75 1.144-1.26 1.18 1.07a.88.88 0 0 0 1.464-.555c.662-5.971 3.27-11.387 7.545-15.66 4.947-4.948 11.524-7.686 18.519-7.71h.09c4.813 0 9.505 1.298 13.575 3.757a.88.88 0 0 0 .909-1.505 27.992 27.992 0 0 0-14.484-4.01h-.096A27.935 27.935 0 0 0 21.13 4.075a27.948 27.948 0 0 0-9.063 6.07c-4.158 4.159-6.839 9.33-7.814 15.041l-.344-.312a1.223 1.223 0 0 0-1.731.084l-1.86 2.05a1.222 1.222 0 0 0 .084 1.731l4.757 4.316a1.336 1.336 0 0 0 1.584.16l5.743-3.404a1.227 1.227 0 0 0 .43-1.678l-1.412-2.382Zm29.335 7.323a1.483 1.483 0 1 0 0-2.966 1.483 1.483 0 0 0 0 2.966Z"/></g><defs><clipPath id="aua"><path d="M0 0h60v60H0z"/></clipPath></defs></symbol><symbol viewBox="0 0 24 24" id="paper-clip" xmlns="http://www.w3.org/2000/svg"><path d="M10 7v8a2 2 0 0 0 2 2 2 2 0 0 0 2-2V7a4 4 0 0 0-4-4 4 4 0 0 0-4 4v8a6 6 0 0 0 6 6 6 6 0 0 0 6-6V7"/></symbol><symbol viewBox="0 0 20 20" id="pencil" xmlns="http://www.w3.org/2000/svg"><path d="m11.666 5 1.793-1.793a1 1 0 0 1 1.414 0l1.92 1.92a1 1 0 0 1 0 1.413L15 8.333M11.666 5l-8.04 8.04a1 1 0 0 0-.293.708v1.919a1 1 0 0 0 1 1h1.92a1 1 0 0 0 .706-.293L15 8.334M11.667 5 15 8.333"/></symbol><symbol viewBox="0 0 24 24" id="phone-call" xmlns="http://www.w3.org/2000/svg"><path d="M15.051 5a5 5 0 0 1 3.95 3.95M15.051 1a9 9 0 0 1 7.95 7.94m-1 7.98v3a2 2 0 0 1-2.18 2 19.79 19.79 0 0 1-8.63-3.07 19.5 19.5 0 0 1-6-6 19.79 19.79 0 0 1-3.07-8.67A2 2 0 0 1 4.111 2h3a2 2 0 0 1 2 1.72c.127.96.362 1.903.7 2.81a2 2 0 0 1-.45 2.11l-1.27 1.27a16 16 0 0 0 6 6l1.27-1.27a2 2 0 0 1 2.11-.45c.908.339 1.85.573 2.81.7a2 2 0 0 1 1.72 2.03Z"/></symbol><symbol viewBox="0 0 24 24" id="plus" xmlns="http://www.w3.org/2000/svg"><path d="M12 5v7m0 7v-7m0 0h7m-7 0H5"/></symbol><symbol viewBox="0 0 24 24" id="printer" xmlns="http://www.w3.org/2000/svg"><path fill-rule="evenodd" clip-rule="evenodd" d="M6.5 5A1.5 1.5 0 0 1 8 3.5h8A1.5 1.5 0 0 1 17.5 5v1.5h-11V5Zm12 0v1.5h.5A2.5 2.5 0 0 1 21.5 9v6a2.5 2.5 0 0 1-2.5 2.5h-1.5V19a2.5 2.5 0 0 1-2.5 2.5H9A2.5 2.5 0 0 1 6.5 19v-1.5H5A2.5 2.5 0 0 1 2.5 15V9A2.5 2.5 0 0 1 5 6.5h.5V5A2.5 2.5 0 0 1 8 2.5h8A2.5 2.5 0 0 1 18.5 5Zm.5 11.5h-1.5V15a2.5 2.5 0 0 0-2.5-2.5H9A2.5 2.5 0 0 0 6.5 15v1.5H5A1.5 1.5 0 0 1 3.5 15V9A1.5 1.5 0 0 1 5 7.5h14A1.5 1.5 0 0 1 20.5 9v6a1.5 1.5 0 0 1-1.5 1.5ZM7.5 15A1.5 1.5 0 0 1 9 13.5h6a1.5 1.5 0 0 1 1.5 1.5v4a1.5 1.5 0 0 1-1.5 1.5H9A1.5 1.5 0 0 1 7.5 19v-4ZM7 9.5a.5.5 0 0 0 0 1h2a.5.5 0 0 0 0-1H7Z"/></symbol><symbol viewBox="0 0 24 24" id="send" xmlns="http://www.w3.org/2000/svg"><path d="m6 12-3 9 18-9L3 3l3 9Zm0 0h6"/></symbol><symbol viewBox="0 0 24 24" id="star" xmlns="http://www.w3.org/2000/svg"><path d="M11.552 3.908a.5.5 0 0 1 .896 0l2.08 4.216a.5.5 0 0 0 .377.273l4.652.676a.5.5 0 0 1 .277.853l-3.366 3.281a.5.5 0 0 0-.144.443l.795 4.633a.5.5 0 0 1-.726.527l-4.16-2.188a.5.5 0 0 0-.466 0l-4.16 2.188a.5.5 0 0 1-.726-.527l.795-4.633a.5.5 0 0 0-.144-.443L4.166 9.926a.5.5 0 0 1 .277-.853l4.652-.676a.5.5 0 0 0 .376-.273l2.08-4.216Z"/></symbol><symbol viewBox="0 0 60 60" id="support" xmlns="http://www.w3.org/2000/svg"><g clip-path="url(#bca)"><path d="M20 0C11.716 0 5 6.716 5 15v11a7.008 7.008 0 0 0 7 7h1v-2h-1a5.006 5.006 0 0 1-5-5V15C7 7.82 12.82 2 20 2s13 5.82 13 13v11a5.006 5.006 0 0 1-5 5h-1v2h1a7.008 7.008 0 0 0 7-7V15c0-8.284-6.716-15-15-15ZM8.24 47.129l.732-1.151-1.69-1.072-.73 1.152a9.968 9.968 0 0 0 .413 11.283V60h2v-3a1 1 0 0 0-.22-.625 7.967 7.967 0 0 1-.504-9.246ZM55 0H42a5.006 5.006 0 0 0-5 5v10a5.006 5.006 0 0 0 5 5h2v4a1 1 0 0 0 1.707.707L50.414 20H55a5.006 5.006 0 0 0 5-5V5a5.006 5.006 0 0 0-5-5Zm3 15a3 3 0 0 1-3 3h-5a1 1 0 0 0-.707.293L46 21.586V19a1 1 0 0 0-1-1h-3a3 3 0 0 1-3-3V5a3 3 0 0 1 3-3h13a3 3 0 0 1 3 3v10Z"/><path d="M49 5h-7v2h7V5Zm6 0h-4v2h4V5Zm0 4H42v2h13V9Zm-6 4h-7v2h7v-2ZM33.448 46.058l-.73-1.152-1.69 1.072.731 1.152a7.965 7.965 0 0 1-.505 9.245 1 1 0 0 0-.219.625v3h2v-2.66a9.968 9.968 0 0 0 .413-11.282Z"/><path d="M59 34h-9a7 7 0 0 0-6.986 6.715L40 46.14V42a7.008 7.008 0 0 0-7-7h-3.655l-.027-.021-.018.02H27a2 2 0 0 1-2-2v-2.352A10 10 0 0 0 30 22v-8a10.021 10.021 0 0 0-1.2-4.746 1 1 0 0 0-1.3-.43l-16.926 7.964a1 1 0 0 0-.574.905V22a10 10 0 0 0 5 8.647V33a2 2 0 0 1-2 2H7a7.008 7.008 0 0 0-7 7v18h2V42a5.006 5.006 0 0 1 5-5h3.182l9.005 12.582a1 1 0 0 0 .8.418H20a1 1 0 0 0 .8-.4L30.3 37H33a5.006 5.006 0 0 1 5 5v8a1 1 0 0 0 1.874.485L44.588 42h5.733l-9.75 18h2.275L52.6 42h.4a7.008 7.008 0 0 0 7-7 1 1 0 0 0-1-1ZM12 22v-3.672l15.441-7.266A8 8 0 0 1 28 14v8a8 8 0 0 1-16 0Zm8.021 25.312L16.935 43h6.336l-3.25 4.312ZM24.784 41H15.5l-2.863-4H13a4 4 0 0 0 4-4v-1.461a9.993 9.993 0 0 0 6 0v1.46a4 4 0 0 0 4 4h.8l-3.016 4ZM53 40h-7.9a5.008 5.008 0 0 1 4.9-4h7.9a5.008 5.008 0 0 1-4.9 4Z"/></g><defs><clipPath id="bca"><path d="M0 0h60v60H0z"/></clipPath></defs></symbol><symbol viewBox="0 0 16 16" id="telegram" xmlns="http://www.w3.org/2000/svg"><path d="m14.629 3.698-2.012 9.618c-.152.679-.548.848-1.11.528l-3.066-2.29-1.48 1.442c-.163.166-.3.305-.616.305l.22-3.165 5.683-5.204c.247-.223-.054-.347-.384-.123L4.839 9.29l-3.024-.959c-.658-.208-.67-.667.137-.986L13.78 2.727c.548-.208 1.027.124.849.971Z"/></symbol><symbol viewBox="0 0 16 16" id="viber" xmlns="http://www.w3.org/2000/svg"><path d="M8 1.335c-1.071.013-3.374.19-4.662 1.37-.958.948-1.292 2.35-1.331 4.084-.033 1.728-.072 4.973 3.058 5.856v1.346s-.02.538.337.648c.438.14.688-.275 1.105-.72l.778-.879c2.142.178 3.782-.232 3.97-.293.435-.139 2.883-.451 3.283-3.696.41-3.351-.2-5.463-1.301-6.418h-.007c-.332-.306-1.668-1.279-4.652-1.29 0 0-.222-.014-.578-.008Zm.037.942a7.02 7.02 0 0 1 .488.011c2.527.007 3.732.767 4.017 1.023.927.794 1.405 2.697 1.055 5.495-.332 2.713-2.317 2.885-2.685 3.002-.156.05-1.6.406-3.42.289 0 0-1.356 1.634-1.78 2.055-.067.074-.146.095-.196.085-.071-.018-.093-.107-.089-.229l.013-2.233c-2.655-.733-2.498-3.5-2.47-4.946.033-1.446.304-2.628 1.113-3.43 1.088-.982 3.043-1.115 3.953-1.122Zm.2 1.446a.166.166 0 1 0 0 .332 3.136 3.136 0 0 1 2.242.883c.606.588.9 1.378.912 2.411 0 .092.074.167.167.167V7.51a.167.167 0 0 0 .168-.165 3.588 3.588 0 0 0-1.009-2.646c-.66-.645-1.496-.977-2.48-.977Zm-2.198.382a.523.523 0 0 0-.342.067H5.69a2.61 2.61 0 0 0-.637.523 1.003 1.003 0 0 0-.256.525.71.71 0 0 0 .026.302l.01.006c.172.504.396.988.67 1.444a8.48 8.48 0 0 0 1.29 1.762l.015.022.024.017.015.018.017.015c.532.505 1.127.94 1.769 1.295.734.4 1.18.588 1.447.667v.004c.078.024.15.034.221.034.228-.016.444-.109.613-.262a2.53 2.53 0 0 0 .517-.638v-.004c.128-.241.085-.469-.1-.623-.37-.323-.77-.61-1.195-.857-.285-.155-.574-.061-.69.095l-.25.315c-.129.156-.361.134-.361.134l-.007.004C7.093 8.527 6.63 6.772 6.63 6.772s-.022-.239.139-.36l.312-.252c.15-.122.254-.41.094-.695a7.498 7.498 0 0 0-.856-1.194.475.475 0 0 0-.28-.167Zm2.486.495c-.221 0-.221.334.003.334A2.098 2.098 0 0 1 10 5.572 1.94 1.94 0 0 1 10.5 7a.168.168 0 0 0 .167.165l.007.009a.169.169 0 0 0 .167-.167c.015-.662-.191-1.218-.595-1.663C9.84 4.9 9.273 4.65 8.549 4.6h-.024Zm.274.898c-.228-.006-.236.335-.01.341.55.029.816.306.851.877a.166.166 0 0 0 .165.163h.007a.168.168 0 0 0 .16-.178c-.039-.744-.445-1.164-1.166-1.202H8.8Z"/></symbol><symbol viewBox="0 0 24 24" id="vk" xmlns="http://www.w3.org/2000/svg"><path d="M12.982 19C5.466 19 1.18 13.745 1 5h3.765c.124 6.418 2.9 9.137 5.098 9.698V5h3.546v5.536c2.17-.239 4.452-2.761 5.221-5.536h3.546a10.79 10.79 0 0 1-1.698 4.002 10.558 10.558 0 0 1-3.126 2.977 10.895 10.895 0 0 1 3.563 2.893A11.153 11.153 0 0 1 23 19h-3.903a6.94 6.94 0 0 0-2.104-3.377 6.726 6.726 0 0 0-3.584-1.626V19h-.427Z"/></symbol><symbol viewBox="0 0 16 16" id="whatsapp" xmlns="http://www.w3.org/2000/svg"><path fill-rule="evenodd" clip-rule="evenodd" d="M12.269 3.755A5.947 5.947 0 0 0 8.035 2 5.994 5.994 0 0 0 2.05 7.985a5.98 5.98 0 0 0 .799 2.992L2 14.077l3.173-.832c.877.477 1.86.728 2.86.728h.002a5.993 5.993 0 0 0 5.533-8.276 5.953 5.953 0 0 0-1.3-1.942Zm-4.234 9.208h-.002c-.89 0-1.765-.24-2.532-.694l-.181-.108-1.883.494.502-1.835-.118-.188a4.965 4.965 0 0 1-.76-2.647 4.982 4.982 0 0 1 6.88-4.597c.604.25 1.152.618 1.613 1.081a4.946 4.946 0 0 1 1.455 3.52 4.982 4.982 0 0 1-4.974 4.974Zm2.729-3.726c-.15-.075-.885-.436-1.022-.486-.137-.05-.236-.075-.336.074-.1.15-.387.486-.474.586-.087.1-.175.112-.324.038-.15-.075-.631-.233-1.203-.742a4.505 4.505 0 0 1-.832-1.036c-.087-.15-.009-.231.066-.306.068-.066.15-.174.224-.262.075-.087.1-.149.15-.249.05-.1.025-.187-.013-.262-.037-.075-.337-.811-.461-1.11-.121-.29-.244-.252-.336-.256a6.418 6.418 0 0 0-.286-.005.55.55 0 0 0-.4.186c-.137.15-.523.512-.523 1.248s.536 1.447.61 1.547c.075.1 1.055 1.61 2.555 2.258.358.154.636.246.853.315.358.114.684.098.942.06.287-.043.885-.362 1.01-.711.124-.35.124-.649.087-.711-.038-.063-.138-.101-.287-.176Z"/></symbol></svg>