<?xml version="1.0" encoding="utf-8"?><svg xmlns="http://www.w3.org/2000/svg" xmlns:xlink="http://www.w3.org/1999/xlink"><symbol viewBox="0 0 24 24" id="arrow-left" xmlns="http://www.w3.org/2000/svg"><path d="m5 12 6-6m-6 6 6 6m-6-6h14"/></symbol><symbol viewBox="0 0 24 24" id="arrow-load-more" xmlns="http://www.w3.org/2000/svg"><path d="M23 4v6h-6"/><path d="M20.49 15a9 9 0 1 1-2.13-9.36L23 10"/></symbol><symbol viewBox="0 0 24 24" id="arrow-right" xmlns="http://www.w3.org/2000/svg"><path d="m19 12-6-6m6 6-6 6m6-6H5"/></symbol><symbol viewBox="0 0 22 24" id="basket" xmlns="http://www.w3.org/2000/svg"><g clip-path="url(#da)"><path d="M10.363 18.443a2.046 2.046 0 0 0-2.045 2.042 2.046 2.046 0 0 0 4.09 0 2.046 2.046 0 0 0-2.045-2.042Zm6.134 0a2.046 2.046 0 0 0-2.045 2.042 2.046 2.046 0 0 0 4.089 0 2.046 2.046 0 0 0-2.044-2.042Zm3.978-8.199L7.413 6.891a.614.614 0 0 0-.75.73L8.67 16.4h-.786L5.482 5.895a.613.613 0 0 0-.474-.464l-4.27-.882A.614.614 0 0 0 .489 5.75l3.885.802L6.797 17.15a.613.613 0 0 0 .598.477h12.07a.615.615 0 0 0 .607-.53l.858-6.175a.613.613 0 0 0-.455-.678Zm-8.14 3.91a.613.613 0 0 1-1.227 0v-2.696a.613.613 0 0 1 1.227 0v2.696Zm2.625 0a.613.613 0 0 1-1.227 0v-1.88a.613.613 0 0 1 1.227 0v1.88Zm2.625 0a.613.613 0 0 1-1.227 0v-1.226a.613.613 0 0 1 1.227 0v1.226Z"/></g><path fill-rule="evenodd" clip-rule="evenodd" d="M16.268 4.568a2.996 2.996 0 0 0-1.693-.523c-.627 0-1.21.193-1.693.523-.28-.843-.492-1.752-.492-2.383C12.39.98 13.37 0 14.575 0s2.185.98 2.185 2.185c0 .631-.212 1.54-.492 2.383Zm-4.722 2.274.024.006v-.011l-.024.005Zm4.972 1.217c-1.333-.33-2.766-.681-4.129-1.013a2.185 2.185 0 1 1 4.129 1.013Zm4.436 1.103c-.866-.217-2.155-.538-3.618-.9a2.995 2.995 0 0 0 .243-1.425c.87.18 1.762.45 2.308.765.596.344.969.928 1.067 1.56ZM9.869 6.439c-.36-.086-.706-.167-1.03-.243a2.19 2.19 0 0 1-.376-2.667 2.188 2.188 0 0 1 3.147-.7c.098.738.338 1.599.61 2.353a3.01 3.01 0 0 0-.449.774c-.628.113-1.305.278-1.902.483Zm10.124.075a3.43 3.43 0 0 1-.217.114c-.696-.295-1.587-.526-2.397-.672a3.01 3.01 0 0 0-.449-.774c.262-.727.494-1.553.599-2.273.095-.067.189-.128.278-.18a2.188 2.188 0 0 1 2.986.8 2.188 2.188 0 0 1-.8 2.985Z"/><defs><clipPath id="da"><path transform="translate(0 3.064)" d="M0 0h20.936v20.936H0z"/></clipPath></defs></symbol><symbol viewBox="0 0 24 24" id="calendar" xmlns="http://www.w3.org/2000/svg"><path d="M19 4H5a2 2 0 0 0-2 2v14a2 2 0 0 0 2 2h14a2 2 0 0 0 2-2V6a2 2 0 0 0-2-2Zm-3-2v4M8 2v4m-5 4h18" stroke-linecap="round" stroke-linejoin="round"/></symbol><symbol viewBox="0 0 24 24" id="check" xmlns="http://www.w3.org/2000/svg"><path d="m5 13 4 4L19 7"/></symbol><symbol viewBox="0 0 16 30" id="chevron-left" xmlns="http://www.w3.org/2000/svg"><path d="M15 29 1 15 15 1"/></symbol><symbol viewBox="0 0 16 30" id="chevron-right" xmlns="http://www.w3.org/2000/svg"><path d="m1 1 14 14L1 29"/></symbol><symbol viewBox="0 0 24 24" id="cross" xmlns="http://www.w3.org/2000/svg"><path d="m6 6 6 6m6 6-6-6m0 0 6-6m-6 6-6 6"/></symbol><symbol viewBox="0 0 24 24" id="eye" xmlns="http://www.w3.org/2000/svg"><path fill-rule="evenodd" clip-rule="evenodd" d="M5.23 15.658A13.61 13.61 0 0 1 2.552 12 13.61 13.61 0 0 1 5.23 8.342C6.787 6.842 9.01 5.5 12 5.5c2.99 0 5.213 1.343 6.77 2.842A13.611 13.611 0 0 1 21.448 12a13.61 13.61 0 0 1-2.678 3.658c-1.557 1.5-3.78 2.842-6.77 2.842-2.99 0-5.213-1.343-6.77-2.842ZM12 4.5c-3.318 0-5.778 1.499-7.464 3.122A14.59 14.59 0 0 0 1.64 11.59a.935.935 0 0 0 0 .82c.285.59 1.217 2.35 2.897 3.968C6.222 18 8.682 19.5 12 19.5c3.318 0 5.778-1.499 7.464-3.122a14.587 14.587 0 0 0 2.897-3.968.935.935 0 0 0 0-.82 14.588 14.588 0 0 0-2.897-3.968C17.778 6 15.318 4.5 12 4.5ZM9.5 12a2.5 2.5 0 1 1 5 0 2.5 2.5 0 0 1-5 0ZM12 8.5a3.5 3.5 0 1 0 0 7 3.5 3.5 0 0 0 0-7Z"/></symbol><symbol viewBox="0 0 24 24" id="eye-off" xmlns="http://www.w3.org/2000/svg"><path fill-rule="evenodd" clip-rule="evenodd" d="M3.354 2.646a.5.5 0 1 0-.708.708l18 18a.5.5 0 0 0 .708-.708l-3.182-3.181c2.51-1.83 3.84-4.335 4.189-5.055a.936.936 0 0 0 0-.82 14.59 14.59 0 0 0-2.897-3.968C17.778 6 15.318 4.5 12 4.5c-2.078 0-3.824.589-5.254 1.431a.505.505 0 0 0-.063.044l-3.33-3.329ZM7.41 6.703l2.494 2.494a3.5 3.5 0 0 1 4.9 4.9l2.652 2.651c2.364-1.67 3.646-4.037 3.992-4.748a13.611 13.611 0 0 0-2.678-3.658C17.213 6.842 14.99 5.5 12 5.5a9.198 9.198 0 0 0-4.59 1.203Zm6.676 6.676a2.5 2.5 0 0 0-3.465-3.465l3.465 3.465ZM4.325 8.54a.5.5 0 0 1 .055.705A13.583 13.583 0 0 0 2.552 12a13.61 13.61 0 0 0 2.678 3.658C6.787 17.158 9.01 18.5 12 18.5a9.42 9.42 0 0 0 1.9-.19.5.5 0 0 1 .2.98 10.44 10.44 0 0 1-2.1.21c-3.318 0-5.778-1.499-7.464-3.122A14.589 14.589 0 0 1 1.64 12.41a.94.94 0 0 1 .001-.822 14.53 14.53 0 0 1 1.98-2.992.5.5 0 0 1 .705-.055Z"/></symbol><symbol viewBox="0 0 24 24" id="fb" xmlns="http://www.w3.org/2000/svg"><path d="M13.657 12.83h3.722l.585-3.652h-4.308V7.182c0-1.517.514-2.862 1.983-2.862H18V1.133c-.415-.055-1.292-.173-2.95-.173-3.462 0-5.491 1.766-5.491 5.788v2.43H6v3.652h3.559v10.038c.704.103 1.418.172 2.151.172.662 0 1.309-.058 1.947-.142V12.83Z"/></symbol><symbol viewBox="0 0 24 24" id="instagram" xmlns="http://www.w3.org/2000/svg"><path d="M12 3.807h4.096c.964 0 1.446.241 1.808.362.482.24.843.361 1.204.723.362.361.603.722.723 1.204.12.362.241.844.362 1.808v8.192c0 .964-.241 1.446-.362 1.808-.24.482-.361.843-.723 1.204-.361.362-.723.603-1.204.723-.362.12-.844.241-1.808.362H7.904c-.964 0-1.446-.241-1.808-.362-.482-.24-.843-.361-1.204-.723-.362-.361-.603-.723-.723-1.204-.12-.362-.241-.844-.362-1.808V7.904c0-.964.241-1.446.362-1.808.24-.482.361-.843.723-1.204.361-.362.722-.603 1.204-.723.362-.12.844-.241 1.808-.362H12ZM12 2H7.904c-1.085 0-1.808.241-2.41.482a5.26 5.26 0 0 0-1.807 1.205c-.603.602-.844 1.084-1.205 1.807-.241.602-.362 1.325-.482 2.41v8.192c0 1.085.241 1.808.482 2.41a5.262 5.262 0 0 0 1.205 1.807c.602.603 1.084.844 1.807 1.205.602.241 1.325.361 2.41.482h8.192c1.085 0 1.808-.241 2.41-.482a5.263 5.263 0 0 0 1.807-1.205c.603-.602.844-1.084 1.205-1.807.241-.602.361-1.325.482-2.41V7.904c0-1.085-.241-1.808-.482-2.41a5.261 5.261 0 0 0-1.205-1.807c-.602-.603-1.084-.844-1.807-1.205-.602-.241-1.325-.362-2.41-.482H12Z"/><path d="M12 6.82A5.142 5.142 0 0 0 6.82 12c0 2.892 2.288 5.18 5.18 5.18s5.18-2.288 5.18-5.18S14.893 6.82 12 6.82Zm0 8.553A3.368 3.368 0 0 1 8.627 12 3.368 3.368 0 0 1 12 8.627 3.368 3.368 0 0 1 15.373 12c0 1.807-1.566 3.373-3.373 3.373Zm5.301-7.469a1.205 1.205 0 1 0 0-2.41 1.205 1.205 0 0 0 0 2.41Z"/></symbol><symbol viewBox="0 0 24 24" id="mail" xmlns="http://www.w3.org/2000/svg"><g stroke-linecap="round" stroke-linejoin="round"><path d="M4 4h16c1.1 0 2 .9 2 2v12c0 1.1-.9 2-2 2H4c-1.1 0-2-.9-2-2V6c0-1.1.9-2 2-2Z"/><path d="m22 6-10 7L2 6"/></g></symbol><symbol viewBox="0 0 24 24" id="phone-call" xmlns="http://www.w3.org/2000/svg"><path d="M15.051 5a5 5 0 0 1 3.95 3.95M15.051 1a9 9 0 0 1 7.95 7.94m-1 7.98v3a2 2 0 0 1-2.18 2 19.79 19.79 0 0 1-8.63-3.07 19.5 19.5 0 0 1-6-6 19.79 19.79 0 0 1-3.07-8.67A2 2 0 0 1 4.111 2h3a2 2 0 0 1 2 1.72c.127.96.362 1.903.7 2.81a2 2 0 0 1-.45 2.11l-1.27 1.27a16 16 0 0 0 6 6l1.27-1.27a2 2 0 0 1 2.11-.45c.908.339 1.85.573 2.81.7a2 2 0 0 1 1.72 2.03Z"/></symbol><symbol viewBox="0 0 24 24" id="plus" xmlns="http://www.w3.org/2000/svg"><path d="M12 5v7m0 7v-7m0 0h7m-7 0H5"/></symbol><symbol viewBox="0 0 24 24" id="printer" xmlns="http://www.w3.org/2000/svg"><path fill-rule="evenodd" clip-rule="evenodd" d="M6.5 5A1.5 1.5 0 0 1 8 3.5h8A1.5 1.5 0 0 1 17.5 5v1.5h-11V5Zm12 0v1.5h.5A2.5 2.5 0 0 1 21.5 9v6a2.5 2.5 0 0 1-2.5 2.5h-1.5V19a2.5 2.5 0 0 1-2.5 2.5H9A2.5 2.5 0 0 1 6.5 19v-1.5H5A2.5 2.5 0 0 1 2.5 15V9A2.5 2.5 0 0 1 5 6.5h.5V5A2.5 2.5 0 0 1 8 2.5h8A2.5 2.5 0 0 1 18.5 5Zm.5 11.5h-1.5V15a2.5 2.5 0 0 0-2.5-2.5H9A2.5 2.5 0 0 0 6.5 15v1.5H5A1.5 1.5 0 0 1 3.5 15V9A1.5 1.5 0 0 1 5 7.5h14A1.5 1.5 0 0 1 20.5 9v6a1.5 1.5 0 0 1-1.5 1.5ZM7.5 15A1.5 1.5 0 0 1 9 13.5h6a1.5 1.5 0 0 1 1.5 1.5v4a1.5 1.5 0 0 1-1.5 1.5H9A1.5 1.5 0 0 1 7.5 19v-4ZM7 9.5a.5.5 0 0 0 0 1h2a.5.5 0 0 0 0-1H7Z"/></symbol><symbol viewBox="0 0 24 24" id="send" xmlns="http://www.w3.org/2000/svg"><path d="m6 12-3 9 18-9L3 3l3 9Zm0 0h6"/></symbol><symbol viewBox="0 0 24 24" id="star" xmlns="http://www.w3.org/2000/svg"><path d="M11.552 3.908a.5.5 0 0 1 .896 0l2.08 4.216a.5.5 0 0 0 .377.273l4.652.676a.5.5 0 0 1 .277.853l-3.366 3.281a.5.5 0 0 0-.144.443l.795 4.633a.5.5 0 0 1-.726.527l-4.16-2.188a.5.5 0 0 0-.466 0l-4.16 2.188a.5.5 0 0 1-.726-.527l.795-4.633a.5.5 0 0 0-.144-.443L4.166 9.926a.5.5 0 0 1 .277-.853l4.652-.676a.5.5 0 0 0 .376-.273l2.08-4.216Z"/></symbol><symbol viewBox="0 0 16 16" id="telegram" xmlns="http://www.w3.org/2000/svg"><path d="m14.629 3.698-2.012 9.618c-.152.679-.548.848-1.11.528l-3.066-2.29-1.48 1.442c-.163.166-.3.305-.616.305l.22-3.165 5.683-5.204c.247-.223-.054-.347-.384-.123L4.839 9.29l-3.024-.959c-.658-.208-.67-.667.137-.986L13.78 2.727c.548-.208 1.027.124.849.971Z"/></symbol><symbol viewBox="0 0 16 16" id="viber" xmlns="http://www.w3.org/2000/svg"><path d="M8 1.335c-1.071.013-3.374.19-4.662 1.37-.958.948-1.292 2.35-1.331 4.084-.033 1.728-.072 4.973 3.058 5.856v1.346s-.02.538.337.648c.438.14.688-.275 1.105-.72l.778-.879c2.142.178 3.782-.232 3.97-.293.435-.139 2.883-.451 3.283-3.696.41-3.351-.2-5.463-1.301-6.418h-.007c-.332-.306-1.668-1.279-4.652-1.29 0 0-.222-.014-.578-.008Zm.037.942a7.02 7.02 0 0 1 .488.011c2.527.007 3.732.767 4.017 1.023.927.794 1.405 2.697 1.055 5.495-.332 2.713-2.317 2.885-2.685 3.002-.156.05-1.6.406-3.42.289 0 0-1.356 1.634-1.78 2.055-.067.074-.146.095-.196.085-.071-.018-.093-.107-.089-.229l.013-2.233c-2.655-.733-2.498-3.5-2.47-4.946.033-1.446.304-2.628 1.113-3.43 1.088-.982 3.043-1.115 3.953-1.122Zm.2 1.446a.166.166 0 1 0 0 .332 3.136 3.136 0 0 1 2.242.883c.606.588.9 1.378.912 2.411 0 .092.074.167.167.167V7.51a.167.167 0 0 0 .168-.165 3.588 3.588 0 0 0-1.009-2.646c-.66-.645-1.496-.977-2.48-.977Zm-2.198.382a.523.523 0 0 0-.342.067H5.69a2.61 2.61 0 0 0-.637.523 1.003 1.003 0 0 0-.256.525.71.71 0 0 0 .026.302l.01.006c.172.504.396.988.67 1.444a8.48 8.48 0 0 0 1.29 1.762l.015.022.024.017.015.018.017.015c.532.505 1.127.94 1.769 1.295.734.4 1.18.588 1.447.667v.004c.078.024.15.034.221.034.228-.016.444-.109.613-.262a2.53 2.53 0 0 0 .517-.638v-.004c.128-.241.085-.469-.1-.623-.37-.323-.77-.61-1.195-.857-.285-.155-.574-.061-.69.095l-.25.315c-.129.156-.361.134-.361.134l-.007.004C7.093 8.527 6.63 6.772 6.63 6.772s-.022-.239.139-.36l.312-.252c.15-.122.254-.41.094-.695a7.498 7.498 0 0 0-.856-1.194.475.475 0 0 0-.28-.167Zm2.486.495c-.221 0-.221.334.003.334A2.098 2.098 0 0 1 10 5.572 1.94 1.94 0 0 1 10.5 7a.168.168 0 0 0 .167.165l.007.009a.169.169 0 0 0 .167-.167c.015-.662-.191-1.218-.595-1.663C9.84 4.9 9.273 4.65 8.549 4.6h-.024Zm.274.898c-.228-.006-.236.335-.01.341.55.029.816.306.851.877a.166.166 0 0 0 .165.163h.007a.168.168 0 0 0 .16-.178c-.039-.744-.445-1.164-1.166-1.202H8.8Z"/></symbol><symbol viewBox="0 0 24 24" id="vk" xmlns="http://www.w3.org/2000/svg"><path d="M12.982 19C5.466 19 1.18 13.745 1 5h3.765c.124 6.418 2.9 9.137 5.098 9.698V5h3.546v5.536c2.17-.239 4.452-2.761 5.221-5.536h3.546a10.79 10.79 0 0 1-1.698 4.002 10.558 10.558 0 0 1-3.126 2.977 10.895 10.895 0 0 1 3.563 2.893A11.153 11.153 0 0 1 23 19h-3.903a6.94 6.94 0 0 0-2.104-3.377 6.726 6.726 0 0 0-3.584-1.626V19h-.427Z"/></symbol><symbol viewBox="0 0 16 16" id="whatsapp" xmlns="http://www.w3.org/2000/svg"><path fill-rule="evenodd" clip-rule="evenodd" d="M12.269 3.755A5.947 5.947 0 0 0 8.035 2 5.994 5.994 0 0 0 2.05 7.985a5.98 5.98 0 0 0 .799 2.992L2 14.077l3.173-.832c.877.477 1.86.728 2.86.728h.002a5.993 5.993 0 0 0 5.533-8.276 5.953 5.953 0 0 0-1.3-1.942Zm-4.234 9.208h-.002c-.89 0-1.765-.24-2.532-.694l-.181-.108-1.883.494.502-1.835-.118-.188a4.965 4.965 0 0 1-.76-2.647 4.982 4.982 0 0 1 6.88-4.597c.604.25 1.152.618 1.613 1.081a4.946 4.946 0 0 1 1.455 3.52 4.982 4.982 0 0 1-4.974 4.974Zm2.729-3.726c-.15-.075-.885-.436-1.022-.486-.137-.05-.236-.075-.336.074-.1.15-.387.486-.474.586-.087.1-.175.112-.324.038-.15-.075-.631-.233-1.203-.742a4.505 4.505 0 0 1-.832-1.036c-.087-.15-.009-.231.066-.306.068-.066.15-.174.224-.262.075-.087.1-.149.15-.249.05-.1.025-.187-.013-.262-.037-.075-.337-.811-.461-1.11-.121-.29-.244-.252-.336-.256a6.418 6.418 0 0 0-.286-.005.55.55 0 0 0-.4.186c-.137.15-.523.512-.523 1.248s.536 1.447.61 1.547c.075.1 1.055 1.61 2.555 2.258.358.154.636.246.853.315.358.114.684.098.942.06.287-.043.885-.362 1.01-.711.124-.35.124-.649.087-.711-.038-.063-.138-.101-.287-.176Z"/></symbol></svg>