<svg width="32" height="32" viewBox="0 0 32 32" fill="none" xmlns="http://www.w3.org/2000/svg">
<circle cx="16" cy="16" r="16" fill="#40AA1A"/>
<path d="M25.2411 17.2994L25.1088 17.0913C24.8972 16.7801 24.6866 16.4689 24.3687 16.2614C24.1044 16.0795 23.7869 15.9502 23.497 15.8202C24.316 15.431 24.8764 14.8865 25.1411 14.1861C25.3259 13.6148 24.988 13.1489 24.988 12.6817V12.63C24.988 12.1103 24.2692 11.7736 23.6086 11.5918C23.2109 11.5141 22.7726 11.5141 22.3764 11.5393L21.5081 11.7212L21.8025 11.0732C22.0662 10.2425 21.989 9.4388 21.5396 8.68582L21.4607 8.55702C21.0638 7.90769 20.4826 7.51883 19.6891 7.31152C18.8701 7.1036 18.1727 7.18129 17.4326 7.57056C16.6913 7.96064 15.9923 8.55742 15.9923 9.33473V9.38646L15.8989 9.56842L15.7594 9.38646L15.4779 8.92032C15.0547 8.2714 14.518 7.88213 13.8566 7.70018C13.2748 7.57076 12.796 7.62269 12.2934 7.88213C11.739 8.21886 11.4188 8.73918 11.2863 9.46476C11.1538 10.2171 11.2859 10.9439 11.6825 11.6695L11.8663 11.9298L11.2321 11.7212C10.4387 11.5393 9.69879 11.6436 8.9589 12.0326C8.19161 12.4215 7.71606 12.9667 7.39835 13.7189C7.10762 14.4453 7.13461 15.1449 7.50446 15.7943C7.66331 16.0797 7.90109 16.3131 8.11208 16.4689C8.42979 16.7799 8.82642 16.9616 9.30216 17.0393L9.48658 17.0911L9.09077 17.4292C8.7201 17.741 8.50932 18.1297 8.37704 18.5185C8.24517 18.9853 8.29792 19.4524 8.56206 19.8942C8.69455 20.1013 8.82642 20.2815 9.03802 20.4127C9.24962 20.5932 9.51377 20.7235 9.83066 20.7497C10.4125 20.8799 11.0208 20.8799 11.6809 20.6713L11.2045 21.4501L11.0735 21.7872C10.8087 22.6161 10.8875 23.3427 11.2843 24.095C11.4695 24.3817 11.6809 24.6407 11.8925 24.874C12.2096 25.1594 12.6054 25.3411 13.0822 25.4714C13.8738 25.6783 14.6673 25.6513 15.4348 25.2628C16.1749 24.874 16.6498 24.2504 16.8884 23.4731L16.914 23.3181C17.4167 23.8615 17.8924 24.2253 18.4218 24.3551C18.95 24.5103 19.4785 24.4853 19.9545 24.1731C20.4039 23.9133 20.721 23.4727 20.8792 22.9274C21.0113 22.357 21.0113 21.7868 20.8792 21.1395C21.143 21.3197 21.4081 21.4497 21.7248 21.5268C22.5702 21.7868 23.3111 21.7602 24.051 21.3714C24.7647 20.9829 25.2405 20.359 25.4781 19.5553C25.6907 18.7773 25.6379 18.0254 25.2411 17.2994ZM21.4085 12.9669L21.7252 12.8367C22.202 12.63 22.6503 12.5775 23.1271 12.63C23.5749 12.6817 23.8936 12.8884 24.0514 13.2004L24.1571 13.5372L24.1044 13.7972C23.9198 14.2642 23.5225 14.6273 22.8624 14.9125C22.598 15.0415 22.3077 15.094 21.9906 15.1449L18.7391 15.5352L18.6855 15.3533L18.6327 15.275L18.7391 15.1447L21.4085 12.9669ZM16.9142 9.69824C17.0462 9.17956 17.4169 8.79049 17.8926 8.53085C18.3686 8.2714 18.8971 8.21906 19.399 8.40082C19.9549 8.53085 20.3505 8.81605 20.5893 9.25704C20.7214 9.51669 20.7999 9.82807 20.7999 10.1652L20.7212 10.7354C20.6157 11.0208 20.4832 11.2807 20.325 11.5143L17.946 14.3676C17.7084 14.1861 17.4441 14.056 17.1789 13.9266L16.9142 10.9955L16.8886 9.95728L16.9142 9.69824ZM12.3957 9.77573C12.421 9.30897 12.6054 8.9976 12.9233 8.81625C13.0822 8.68623 13.32 8.68623 13.531 8.79049C14.0073 8.92052 14.4042 9.25725 14.7202 9.90596C14.8527 10.1656 14.9846 10.4248 15.0381 10.7358L15.5664 13.7978L15.1706 13.9272L12.8172 11.4103L12.6854 11.151C12.4738 10.6837 12.3421 10.2429 12.3957 9.77573ZM8.50891 15.2752C8.29771 14.8867 8.29771 14.4979 8.45657 14.1086C8.64139 13.6148 8.98486 13.2264 9.48617 13.0187C9.96294 12.759 10.4379 12.6819 10.967 12.8108L11.6807 13.0962L14.0069 14.7565C13.7955 15.0165 13.663 15.275 13.5833 15.5352L9.7771 16.0022L9.51336 15.9505C9.03761 15.8721 8.7201 15.6657 8.50891 15.2752ZM15.9923 22.9287L15.8989 23.1885C15.7136 23.6553 15.3628 24.0445 14.8873 24.2508C14.4111 24.5109 13.891 24.5626 13.4165 24.434C12.8863 24.3038 12.4821 23.9926 12.2705 23.5772C12.1391 23.3187 12.0299 23.0068 12.0299 22.695L12.1581 22.0994C12.2117 21.8396 12.3437 21.5795 12.5549 21.3724L14.7742 18.7771C15.0386 18.9076 15.3696 19.0372 15.6609 19.0638C15.713 19.9452 15.9923 20.8805 15.9923 21.8909V22.9287ZM14.9844 17.7414C14.6409 17.4296 14.4567 16.9876 14.4567 16.5211C14.4567 16.0539 14.6409 15.6652 14.9844 15.3015C15.3021 15.0165 15.7251 14.8348 16.2272 14.8348C16.7032 14.8348 17.1525 15.0167 17.4441 15.3015C17.8127 15.6652 17.9724 16.0539 17.9724 16.5211C17.9724 16.9876 17.8127 17.4292 17.4441 17.7414C17.0998 18.0783 16.7032 18.2587 16.2272 18.2587C15.7251 18.2591 15.3023 18.0787 14.9844 17.7414ZM19.8758 22.2801C19.8228 22.7483 19.6642 23.0853 19.3461 23.2153C19.1621 23.3437 18.9503 23.3437 18.7386 23.3191C18.2365 23.1887 17.8399 22.8003 17.5496 22.1765L17.2315 21.3207L16.8356 19.064L17.284 18.9074L17.6285 18.7273L18.7389 19.8411L19.4262 20.6718L19.5581 20.9306C19.7958 21.3724 19.9285 21.7878 19.8758 22.2801ZM24.4219 19.2445C24.2896 19.7646 23.9725 20.1533 23.5225 20.36C23.0476 20.62 22.5708 20.672 22.0431 20.4904C21.7252 20.4133 21.514 20.2817 21.3294 20.0754L18.5534 17.8185L18.7386 17.4296L18.8186 17.1176L21.805 16.8578L22.8619 16.8326L23.1271 16.8578C23.5225 16.988 23.8936 17.2215 24.104 17.6102C24.3683 17.8968 24.5008 18.2857 24.5008 18.7277L24.4219 19.2445Z" fill="white"/>
</svg>
