<svg width="32" height="32" viewBox="0 0 32 32" fill="none" xmlns="http://www.w3.org/2000/svg">
<circle cx="16" cy="16" r="16" fill="#3B8CC3"/>
<path d="M7.48173 16.2969L11.1602 17.6686L12.5942 22.2822C12.6565 22.594 13.0306 22.6563 13.28 22.4693L15.3374 20.7859C15.5245 20.5989 15.8362 20.5989 16.0856 20.7859L19.7641 23.4668C20.0135 23.6538 20.3875 23.5292 20.4499 23.2174L23.1931 10.1246C23.2555 9.81285 22.9438 9.50111 22.632 9.62581L7.48173 15.4864C7.10765 15.6111 7.10765 16.1722 7.48173 16.2969ZM12.4071 16.9827L19.6394 12.5561C19.7641 12.4938 19.8888 12.6808 19.7641 12.7432L13.8411 18.292C13.6541 18.4791 13.467 18.7284 13.467 19.0402L13.28 20.5365C13.28 20.7235 12.9683 20.7859 12.9059 20.5365L12.1577 17.7932C11.9707 17.4815 12.0954 17.1074 12.4071 16.9827Z" fill="white"/>
</svg>
