<svg width="32" height="32" viewBox="0 0 32 32" fill="none" xmlns="http://www.w3.org/2000/svg">
<path d="M32 16C32 24.8366 24.8366 32 16 32C7.16344 32 0 24.8366 0 16C0 7.16344 7.16344 0 16 0C24.8366 0 32 7.16344 32 16Z" fill="#FD2734"/>
<path d="M17.9414 16.8424H16.8183C15.0534 16.8424 13.342 15.6138 13.342 12.5415C13.342 9.34175 14.9466 8.03607 16.5775 8.03607H17.9414V16.8424ZM19.7063 6.39766H16.658C13.6625 6.39766 11.1228 8.57403 11.1228 12.7979C11.1228 15.3322 12.3528 17.2011 14.5456 18.1222L10.454 25.1879C10.3201 25.4183 10.454 25.5977 10.6677 25.5977H12.5664C12.7266 25.5977 12.8342 25.5465 12.8876 25.4183L16.6046 18.4808H17.9414V25.4183C17.9414 25.4954 18.0219 25.5977 18.1287 25.5977H19.7867C19.947 25.5977 20.0004 25.5206 20.0004 25.3931V6.65333C20.0004 6.47471 19.8936 6.39766 19.7063 6.39766Z" fill="white"/>
</svg>
