<svg width="32" height="32" viewBox="0 0 32 32" fill="none" xmlns="http://www.w3.org/2000/svg">
<g clip-path="url(#clip0_110_3016)">
<path d="M16 32C24.8365 32 32 24.8365 32 16C32 7.16347 24.8365 0 16 0C7.16347 0 0 7.16347 0 16C0 24.8365 7.16347 32 16 32Z" fill="#2D8CFF"/>
<path fill-rule="evenodd" clip-rule="evenodd" d="M25.3906 10.6224L20.8688 13.9215V18.0888L25.3906 21.3879C25.7105 21.6323 26.0862 21.7079 26.0862 21.0407V10.9696C26.0862 10.3747 25.7847 10.3 25.3906 10.6224ZM5.56445 18.5033V10.9904C5.56445 10.683 5.81585 10.4336 6.12595 10.4336H17.0828C18.7889 10.4336 20.1732 11.804 20.1732 13.4944V21.0073C20.1732 21.3146 19.9218 21.564 19.6116 21.564H8.65477C6.94871 21.564 5.56445 20.1937 5.56445 18.5033Z" fill="white"/>
</g>
<defs>
<clipPath id="clip0_110_3016">
<rect width="32" height="32" fill="white"/>
</clipPath>
</defs>
</svg>
