<svg width="60" height="60" viewBox="0 0 60 60" fill="none" xmlns="http://www.w3.org/2000/svg">
<path d="M9.48949 37.254C4.32246 37.7012 0.277574 41.8917 0.0136259 47.0708C-0.250322 52.25 3.3476 56.8299 8.44239 57.8C9.1177 59.1442 10.4913 59.9947 11.9957 60H35.9979C37.5022 59.9947 38.8759 59.1442 39.5512 57.8C44.6489 56.833 48.2503 52.2519 47.9863 47.0705C47.7222 41.8891 43.6737 37.6978 38.5041 37.254C35.983 36.9204 33.4394 36.7887 30.8974 36.86C30.5668 35.4211 30.3266 33.9629 30.1783 32.494C31.9973 30.663 33.3048 28.3874 33.9707 25.894C34.3084 25.9649 34.6526 26.0004 34.9978 26V30C34.9978 30.5523 35.4455 31 35.9979 31C36.4479 31 36.0239 31.211 43.3185 26H54.9995C57.7598 25.9967 59.9967 23.7601 60 21V5C59.9967 2.23995 57.7598 0.00330612 54.9995 0H34.9978C33.7085 0.00180962 32.4701 0.503687 31.5435 1.4C29.1236 0.515826 26.5728 0.04263 23.9968 0C23.6497 0 15.459 0.0500002 12.1957 4.4C10.0955 7.206 10.7066 14.457 10.9416 16.6C10.0025 17.544 9.99553 19.294 9.99553 19.933C9.99553 24.317 12.6568 25.533 14.0049 25.869C14.6602 28.3811 15.9718 30.6738 17.8052 32.512C17.6641 33.976 17.4303 35.4296 17.1052 36.864C14.5603 36.7969 12.0141 36.9273 9.48949 37.254ZM31.9525 48C32.2558 48.196 32.5092 48.46 32.6926 48.771C30.5714 50.7246 28.7013 52.9342 27.1251 55.349C27.5168 49.7786 28.7157 44.2947 30.6844 39.069C32.3363 39.7551 33.7149 40.968 34.6057 42.519C32.967 43.4479 31.7079 44.9243 31.0494 46.689C30.9373 46.9861 30.9779 47.3192 31.158 47.5807C31.3382 47.8421 31.635 47.9988 31.9525 48ZM25.0169 58H22.9767C22.8561 52.3308 21.9287 46.7077 20.2224 41.3C22.6506 42.2395 25.342 42.2395 27.7701 41.3C26.0648 46.7079 25.1377 52.3309 25.0169 58ZM16.9442 46.684C16.2852 44.9184 15.0249 43.4415 13.3848 42.513C14.2731 40.9588 15.6539 39.7448 17.3092 39.063C19.2814 44.2883 20.4805 49.7734 20.8685 55.345C19.2926 52.9291 17.422 50.7188 15.3 48.765C15.4777 48.4654 15.7145 48.2051 15.9961 48C16.3174 47.9998 16.619 47.8452 16.8068 47.5845C16.9946 47.3238 17.0457 46.9888 16.9442 46.684ZM9.99553 56V50C9.99553 49.4477 9.54778 49 8.99544 49C8.44311 49 7.99535 49.4477 7.99535 50V55.64C4.13479 54.4911 1.63604 50.7605 2.04327 46.7535C2.4505 42.7466 5.64872 39.5949 9.6615 39.246L13.8209 38.884C12.662 39.9277 11.7273 41.1961 11.0736 42.612C10.9655 42.8688 10.9694 43.1591 11.0844 43.4129C11.1995 43.6668 11.4152 43.861 11.6797 43.949C12.9533 44.4123 14.0138 45.3248 14.6619 46.515C14.008 47.0808 13.4768 47.7743 13.1008 48.553C12.8849 48.9853 13.0091 49.5102 13.3958 49.8C16.0871 51.818 18.8333 55.823 20.2134 58H11.9957C10.891 58 9.99553 57.1046 9.99553 56ZM45.9987 47.61C45.99 51.3175 43.5515 54.5807 39.9982 55.64V50C39.9982 49.4477 39.5505 49 38.9981 49C38.4458 49 37.998 49.4477 37.998 50V56C37.998 57.1046 37.1025 58 35.9979 58H27.7801C29.1602 55.823 31.9065 51.818 34.5977 49.8C34.9863 49.5116 35.1126 48.9865 34.8978 48.553C34.5209 47.7727 33.9879 47.078 33.3316 46.512C33.9787 45.3198 35.0421 44.4075 36.3189 43.949C36.5833 43.861 36.7991 43.6668 36.9141 43.4129C37.0292 43.1591 37.0331 42.8688 36.9249 42.612C36.2718 41.1976 35.3386 39.9304 34.1817 38.887L38.3351 39.246C42.6801 39.609 46.0165 43.2502 45.9987 47.61ZM34.9978 2H54.9995C56.6566 2 57.9998 3.34315 57.9998 5V21C57.9998 22.6569 56.6566 24 54.9995 24C41.9364 24 42.7875 23.92 42.4174 24.186L36.9979 28.057V25C36.9979 24.4477 36.5502 24 35.9979 24H34.9978C33.3408 24 31.9975 22.6569 31.9975 21V5C31.9975 3.34315 33.3408 2 34.9978 2ZM13.7959 5.6C16.4581 2.051 23.9228 2 23.9968 2C26.1662 2.04692 28.3165 2.41768 30.3764 3.1C30.1406 3.67516 30.0151 4.28948 30.0063 4.911C28.9024 4.4993 27.6979 4.44026 26.559 4.742C21.4476 5.615 20.4485 3.654 17.5492 5.103C15.241 6.259 13.9959 9.519 13.9959 12C13.9065 13.4099 13.6435 14.8035 13.2128 16.149C13.1095 16.1137 13.0043 16.084 12.8978 16.06C12.6108 13.194 12.3727 7.5 13.7959 5.6ZM11.9957 19.93C11.9957 18.309 12.3557 17.998 12.3527 17.998C12.5945 18.0132 12.8258 18.1018 13.0158 18.252C13.0295 19.9991 13.1715 21.7428 13.4408 23.469C12.6768 22.94 11.9957 21.912 11.9957 19.93ZM16.7601 27.571C15.254 24.406 14.996 20.7 14.996 17.158C15.5504 15.489 15.8866 13.7553 15.9961 12C15.9961 10.125 16.9792 7.626 18.4433 6.895C20.4905 5.869 21.4886 7.64 26.894 6.715C27.9428 6.3652 29.0956 6.53923 29.9943 7.183V21C29.997 22.6264 30.7918 24.1496 32.1245 25.082C30.9644 29.222 28.3592 33 23.9968 33C20.8885 33 18.4543 31.175 16.7601 27.571ZM28.3232 33.865C28.4892 35.1753 28.7313 36.4748 29.0482 37.757C27.3241 40.757 20.6775 40.777 18.9543 37.757C19.2659 36.477 19.504 35.1802 19.6674 33.873C22.3566 35.38 25.6368 35.377 28.3232 33.865Z" fill="#2671A8"/>
<path d="M38.9982 16H41.9985V19C41.9985 20.1046 42.894 21 43.9987 21H45.9989C47.1035 21 47.999 20.1046 47.999 19V16H50.9993C52.104 16 52.9995 15.1046 52.9995 14V12C52.9995 10.8954 52.104 10 50.9993 10H47.999V7C47.999 5.89543 47.1035 5 45.9989 5H43.9987C42.894 5 41.9985 5.89543 41.9985 7V10H38.9982C37.8936 10 36.998 10.8954 36.998 12V14C36.998 15.1046 37.8936 16 38.9982 16ZM38.9982 12H41.9985C43.1032 12 43.9987 11.1046 43.9987 10V7H45.9989V10C45.9989 11.1046 46.8944 12 47.999 12H50.9993V14H47.999C46.8944 14 45.9989 14.8954 45.9989 16V19H43.9987V16C43.9987 14.8954 43.1032 14 41.9985 14H38.9982V12Z" fill="#2671A8"/>
</svg>
