<svg width="24" height="24" viewBox="0 0 24 24" fill="none" xmlns="http://www.w3.org/2000/svg">
<g id="eye">
<path id="Union" fill-rule="evenodd" clip-rule="evenodd" d="M5.23005 15.6576C3.69204 14.1765 2.82487 12.56 2.55168 12C2.82487 11.44 3.69204 9.82351 5.23005 8.34236C6.7871 6.84288 9.01089 5.5 12 5.5C14.9891 5.5 17.2129 6.84288 18.77 8.34236C20.308 9.82351 21.1752 11.44 21.4484 12C21.1752 12.56 20.308 14.1765 18.77 15.6576C17.2129 17.1571 14.9891 18.5 12 18.5C9.01089 18.5 6.7871 17.1571 5.23005 15.6576ZM12 4.5C8.6818 4.5 6.22202 5.99874 4.53639 7.62206C2.85587 9.24045 1.92418 11.0004 1.63896 11.5903C1.51293 11.851 1.51293 12.149 1.63896 12.4097C1.92418 12.9996 2.85587 14.7596 4.53639 16.3779C6.22202 18.0013 8.6818 19.5 12 19.5C15.3182 19.5 17.778 18.0013 19.4636 16.3779C21.1442 14.7596 22.0759 12.9996 22.3611 12.4097C22.4871 12.149 22.4871 11.851 22.3611 11.5903C22.0759 11.0004 21.1442 9.24045 19.4636 7.62206C17.778 5.99874 15.3182 4.5 12 4.5ZM9.50002 12C9.50002 10.6193 10.6193 9.5 12 9.5C13.3807 9.5 14.5 10.6193 14.5 12C14.5 13.3807 13.3807 14.5 12 14.5C10.6193 14.5 9.50002 13.3807 9.50002 12ZM12 8.5C10.067 8.5 8.50002 10.067 8.50002 12C8.50002 13.933 10.067 15.5 12 15.5C13.933 15.5 15.5 13.933 15.5 12C15.5 10.067 13.933 8.5 12 8.5Z" fill="#AFB9D2"/>
</g>
</svg>
