<svg width="60" height="60" viewBox="0 0 60 60" fill="none" xmlns="http://www.w3.org/2000/svg">
<g clip-path="url(#clip0_29_4888)">
<path d="M59.1417 53.6866H54.1856V29.2984C54.1856 27.4373 52.6704 25.9232 50.808 25.9232H44.9265C54.8693 7.75568 31.3019 -9.31594 17.1166 5.84239C16.795 6.20589 16.8292 6.76086 17.193 7.08208C17.5567 7.40342 18.1122 7.36923 18.4335 7.00573C23.568 1.20155 32.2858 0.110935 38.7123 4.46919C50.3182 12.3313 46.1458 30.5305 32.2931 32.5685C32.0499 32.6046 31.833 32.7408 31.6949 32.9441L30.0174 35.4144L28.4355 32.9742C28.2973 32.7611 28.0737 32.6181 27.8221 32.5822C25.4826 32.2484 23.2979 31.402 21.3289 30.0667C15.118 26.0024 12.7477 17.344 16.0043 10.6952C16.211 10.2563 16.0226 9.73303 15.5835 9.52645C15.1443 9.31964 14.6207 9.50807 14.414 9.94699C12.0163 14.9602 12.2878 21.1274 15.1175 25.9231H9.2331C7.37064 25.9231 5.85552 27.4373 5.85552 29.2983V53.6866H0.899416C0.414024 53.6866 0.0205078 54.0798 0.0205078 54.5649V56.6248C0.0205078 58.486 1.53574 60 3.39809 60H56.6429C58.5054 60 60.0205 58.4858 60.0205 56.6248V54.5649C60.0206 54.0798 59.6271 53.6866 59.1417 53.6866ZM43.7597 27.6731C43.795 27.6775 43.831 27.6797 43.8675 27.6797H50.808C51.7012 27.6797 52.4278 28.4059 52.4278 29.2983V53.6866H50.0294V30.9629C50.0294 30.4778 49.6359 30.0846 49.1505 30.0846H41.5348C42.3475 29.3571 43.0936 28.5505 43.7597 27.6731ZM7.61322 29.2984C7.61322 28.4059 8.3399 27.6798 9.23299 27.6798H16.1735C16.2109 27.6798 16.2478 27.6775 16.2839 27.6729C16.9442 28.5429 17.6875 29.3509 18.5055 30.0846H10.8906C10.4052 30.0846 10.0117 30.4778 10.0117 30.9629V53.6866H7.61322V29.2984ZM58.2628 56.6248C58.2628 57.5174 57.5361 58.2434 56.643 58.2434H3.39809C2.50489 58.2434 1.77832 57.5173 1.77832 56.6248V55.4432H41.2378C41.7232 55.4432 42.1167 55.0499 42.1167 54.5649C42.1167 54.0798 41.7232 53.6866 41.2378 53.6866H11.7695V31.8412H20.4503C20.5555 31.8412 20.6564 31.8227 20.7498 31.7888C22.7207 33.0482 24.8778 33.8779 27.1743 34.2597L29.2627 37.4812C29.6054 38.0099 30.3752 38.0158 30.7276 37.4969L32.9362 34.2447C35.1808 33.8592 37.3105 33.0325 39.2079 31.8385C39.2871 31.8467 48.1908 31.8385 48.2715 31.8413V53.6866H45.9199C45.4345 53.6866 45.041 54.0798 45.041 54.5649C45.041 55.0499 45.4345 55.4432 45.9199 55.4432H58.2627L58.2628 56.6248Z" fill="#2671A8"/>
<path d="M26.9717 24.9607C27.1396 29.0032 32.9023 29.0002 33.0687 24.9607V17.8555C32.9008 13.8129 27.1381 13.816 26.9717 17.8555V24.9607ZM28.7295 17.8555C28.8006 16.1438 31.2405 16.1451 31.3109 17.8555V24.9607C31.2398 26.6723 28.7999 26.671 28.7295 24.9607V17.8555Z" fill="#2671A8"/>
<path d="M30.0202 13.3853C31.7011 13.3853 33.0687 12.0186 33.0687 10.3389C32.9013 6.29727 27.1384 6.29844 26.9717 10.3389C26.9717 12.0186 28.3393 13.3853 30.0202 13.3853ZM30.0202 9.04893C30.7319 9.04893 31.3109 9.62756 31.3109 10.3389C31.24 12.05 28.8 12.0496 28.7295 10.3389C28.7295 9.62756 29.3085 9.04893 30.0202 9.04893Z" fill="#2671A8"/>
<path d="M16.174 38.9461H22.712C23.8757 38.9058 23.8748 37.2294 22.712 37.1895H16.174C15.0103 37.2297 15.0111 38.9061 16.174 38.9461Z" fill="#2671A8"/>
<path d="M43.8672 37.1895H37.3293C36.1655 37.2297 36.1664 38.9061 37.3293 38.9461H43.8672C45.031 38.9058 45.03 37.2294 43.8672 37.1895Z" fill="#2671A8"/>
<path d="M43.8678 42.2832H16.174C15.0102 42.3235 15.0112 43.9999 16.174 44.0398H43.8678C45.0316 43.9995 45.0307 42.3231 43.8678 42.2832Z" fill="#2671A8"/>
<path d="M38.0086 47.377H22.0336C20.8698 47.4172 20.8708 49.0936 22.0336 49.1336H38.0086C39.1724 49.0933 39.1715 47.4169 38.0086 47.377Z" fill="#2671A8"/>
</g>
<defs>
<clipPath id="clip0_29_4888">
<rect width="60" height="60" fill="white"/>
</clipPath>
</defs>
</svg>
