<svg width="60" height="60" viewBox="0 0 60 60" fill="none" xmlns="http://www.w3.org/2000/svg">
<g clip-path="url(#clip0_29_4850)">
<path d="M42.8397 41.6874H25.6148C25.1292 41.6874 24.7357 42.0809 24.7357 42.5666C24.7357 43.0522 25.1292 43.4457 25.6148 43.4457H42.8397C46.2329 43.4457 48.9935 40.6851 48.9935 37.292V24.0914C48.9935 20.6982 46.2329 17.9376 42.8397 17.9376H37.848L26.5043 12.147C25.3726 11.5695 23.9822 12.0205 23.4047 13.1517L20.9617 17.9376H17.7068C16.5757 17.9376 15.6555 18.8578 15.6555 19.9889V41.3943C15.6555 42.5254 16.5757 43.4456 17.7068 43.4456H21.748C22.2336 43.4456 22.6271 43.0521 22.6271 42.5664C22.6271 42.0808 22.2336 41.6873 21.748 41.6873H17.7068C17.5452 41.6873 17.4137 41.5559 17.4137 41.3942V19.9888C17.4137 19.8272 17.5451 19.6957 17.7068 19.6957H42.8396C45.2634 19.6957 47.2352 21.6675 47.2352 24.0913V26.9497H40.2328C37.9903 26.9497 36.1659 28.7741 36.1659 31.0166V32.1883C36.1659 34.4308 37.9903 36.2552 40.2328 36.2552H47.2352V37.2915C47.2353 39.7155 45.2635 41.6874 42.8397 41.6874ZM24.9708 13.9511C25.1076 13.683 25.4369 13.5764 25.705 13.713L33.9809 17.9376H22.9358L24.9708 13.9511ZM40.2328 34.4973C38.9598 34.4973 37.9241 33.4616 37.9241 32.1886V31.0168C37.9241 29.7438 38.9598 28.7081 40.2328 28.7081H47.2352V34.4973H40.2328Z" fill="#2671A8"/>
<path d="M57.884 19.2993C56.4797 15.8921 54.4481 12.8357 51.8452 10.2153C51.2061 9.5718 50.5301 8.95293 49.8359 8.37578C49.4628 8.06582 48.9084 8.11644 48.5978 8.4898C48.2875 8.86316 48.3386 9.41746 48.7119 9.72789C49.3633 10.2694 49.9978 10.8502 50.5978 11.4543C55.5271 16.4173 58.2418 23.0038 58.2418 30.0004C58.2418 37.0307 55.504 43.6402 50.5328 48.6113C45.5617 53.5825 38.9522 56.3202 31.9218 56.3202C26.3682 56.3202 21.0785 54.6207 16.5963 51.4009L17.6348 50.0505C21.8165 53.0399 26.7473 54.6177 31.9218 54.6177C38.4988 54.6177 44.6858 52.0464 49.343 47.3776C53.9999 42.709 56.5556 36.5155 56.5392 29.9379C56.5054 16.432 45.4903 5.41668 31.9843 5.38293C31.9628 5.38293 31.9417 5.38281 31.9202 5.38281C27.9932 5.38281 24.2374 6.2848 20.7561 8.06394C17.4196 9.76902 14.4651 12.2602 12.2117 15.268C11.9206 15.6566 11.9997 16.2077 12.3882 16.4987C12.7767 16.7896 13.3278 16.7106 13.6189 16.3223C17.928 10.5701 24.767 7.14086 31.9238 7.14086C31.9422 7.14086 31.9613 7.14098 31.9798 7.14098C44.521 7.17238 54.7496 17.4009 54.7809 29.942C54.7961 36.0493 52.4228 41.8003 48.0981 46.1358C43.7732 50.4715 38.0282 52.8593 31.9217 52.8593C26.9876 52.8593 22.2932 51.315 18.3458 48.3934C17.7642 47.9629 16.9312 48.0808 16.4888 48.656L14.9416 50.668C14.7208 50.955 14.6267 51.3106 14.6766 51.6692C14.7268 52.0292 14.9154 52.347 15.2076 52.5638C20.0665 56.1714 25.8461 58.0783 31.9217 58.0783C39.4217 58.0783 46.4728 55.1576 51.7761 49.8544C57.0794 44.5513 60.0001 37.5003 60.0001 30.0004C60.0001 26.3066 59.288 22.7063 57.884 19.2993Z" fill="#2671A8"/>
<path d="M11.5039 25.7513C11.3372 25.4695 11.0706 25.2697 10.7534 25.1886C10.4363 25.1073 10.1067 25.1548 9.82508 25.3215L9.50668 25.5104C9.90969 23.4914 10.5848 21.542 11.522 19.6943C11.7416 19.2614 11.5687 18.7323 11.1356 18.5127C10.7032 18.2932 10.1737 18.4658 9.95399 18.8991C8.64501 21.4793 7.81075 24.2442 7.47395 27.1173C7.43504 27.4493 7.58786 27.7747 7.86817 27.9568C8.14848 28.1389 8.5079 28.1463 8.79536 27.9759L10.2629 27.1059L11.1309 28.5707L6.112 31.5454L1.97821 27.795L3.12196 26.5342L4.30168 27.6042C4.54649 27.8262 4.89465 27.8921 5.20356 27.7753C5.51235 27.6584 5.72973 27.3782 5.76606 27.0499C6.4277 21.0788 9.03653 15.6632 13.3106 11.3891C18.258 6.44168 24.835 3.70395 31.83 3.68027C31.8601 3.68016 31.8901 3.68016 31.9202 3.68016C36.7325 3.68016 41.4246 4.97848 45.4947 7.43719C45.9103 7.68809 46.4507 7.55496 46.7018 7.13918C46.9528 6.72363 46.8194 6.18328 46.4038 5.93215C42.059 3.3075 37.0532 1.92188 31.9201 1.92188C31.8882 1.92188 31.8557 1.92187 31.8239 1.92199C28.1306 1.93441 24.5327 2.6591 21.1304 4.07531C17.7284 5.49152 14.6791 7.53387 12.0671 10.1457C7.90918 14.3038 5.2284 19.4752 4.25305 25.1864L3.90852 24.8739C3.66618 24.6539 3.35375 24.543 3.02563 24.5572C2.69868 24.5733 2.3975 24.7154 2.17778 24.9579L0.318012 27.0083C0.0980508 27.2507 -0.0144492 27.5643 0.00148828 27.8912C0.0174258 28.2182 0.159691 28.5193 0.402152 28.7391L5.15926 33.0548C5.41356 33.2855 5.73442 33.4039 6.05856 33.4039C6.29317 33.4039 6.52965 33.3418 6.74329 33.215L12.4861 29.8113C13.0671 29.467 13.2597 28.7141 12.9154 28.1327L11.5039 25.7513Z" fill="#2671A8"/>
<path d="M40.8385 33.0744C41.6575 33.0744 42.3215 32.4105 42.3215 31.5914C42.3215 30.7724 41.6575 30.1084 40.8385 30.1084C40.0194 30.1084 39.3555 30.7724 39.3555 31.5914C39.3555 32.4105 40.0194 33.0744 40.8385 33.0744Z" fill="#2671A8"/>
</g>
<defs>
<clipPath id="clip0_29_4850">
<rect width="60" height="60" fill="white"/>
</clipPath>
</defs>
</svg>
