<svg width="60" height="60" viewBox="0 0 60 60" fill="none" xmlns="http://www.w3.org/2000/svg">
<g clip-path="url(#clip0_29_4860)">
<path d="M20 0C11.7157 0 5 6.71575 5 15V26C5.00438 29.8641 8.13587 32.9956 12 33H13V31H12C9.24 30.9967 7.00325 28.76 7 26V15C7 7.82025 12.8203 2 20 2C27.1798 2 33 7.82025 33 15V26C32.9967 28.76 30.76 30.9967 28 31H27V33H28C31.8641 32.9956 34.9956 29.8641 35 26V15C35 6.71575 28.2843 0 20 0Z" fill="#2671A8"/>
<path d="M8.24066 47.1288L8.97166 45.9778L7.28266 44.9058L6.55167 46.0578C4.34079 49.5418 4.50492 54.0278 6.96467 57.3408V59.9998H8.96466V56.9998C8.96479 56.7726 8.88754 56.5521 8.74566 56.3748C6.61967 53.717 6.41679 50.0023 8.24066 47.1288Z" fill="#2671A8"/>
<path d="M55 0H42C39.24 0.00325 37.0033 2.24 37 5V15C37.0033 17.76 39.24 19.9967 42 20H44V24C43.9999 24.4044 44.2434 24.7691 44.617 24.924C44.7384 24.9746 44.8685 25.0004 45 25C45.2653 25 45.5195 24.8945 45.707 24.707L50.414 20H55C57.76 19.9967 59.9967 17.76 60 15V5C59.9967 2.24 57.76 0.00325 55 0ZM58 15C58 16.6569 56.6569 18 55 18H50C49.7347 18 49.4805 18.1055 49.293 18.293L46 21.586V19C46 18.4478 45.5522 18 45 18H42C40.3431 18 39 16.6569 39 15V5C39 3.34312 40.3431 2 42 2H55C56.6569 2 58 3.34312 58 5V15Z" fill="#2671A8"/>
<path d="M49 5H42V7H49V5Z" fill="#2671A8"/>
<path d="M55 5H51V7H55V5Z" fill="#2671A8"/>
<path d="M55 9H42V11H55V9Z" fill="#2671A8"/>
<path d="M49 13H42V15H49V13Z" fill="#2671A8"/>
<path d="M33.4483 46.0578L32.7173 44.9058L31.0283 45.9778L31.7593 47.1298C33.5833 50.0029 33.3804 53.7174 31.2543 56.3748C31.1124 56.5521 31.0352 56.7726 31.0353 56.9998V59.9998H33.0353V57.3408C35.4951 54.0278 35.6592 49.5418 33.4483 46.0578Z" fill="#2671A8"/>
<path d="M59 33.9999H50C46.248 34.0043 43.1667 36.966 43.014 40.7149L40 46.1409V41.9999C39.9956 38.1358 36.8641 35.0043 33 34.9999H29.345L29.318 34.9789L29.3 34.9999H27C25.8954 34.9999 25 34.1045 25 32.9999V30.6469C28.0899 28.8629 29.9953 25.5678 30 21.9999V13.9999C29.9985 12.343 29.5862 10.7124 28.8 9.25388C28.5481 8.78988 27.9789 8.60151 27.5 8.82388L10.574 16.7879C10.2235 16.9529 9.99988 17.3055 10 17.6929V21.9999C10.0048 25.5678 11.9101 28.8629 15 30.6469V32.9999C15 34.1045 14.1046 34.9999 13 34.9999H7C3.13587 35.0043 0.004375 38.1358 0 41.9999V59.9999H2V41.9999C2.00325 39.2399 4.24 37.0031 7 36.9999H10.182L19.187 49.5819C19.372 49.8405 19.669 49.9956 19.987 49.9999H20C20.3148 49.9999 20.6111 49.8516 20.8 49.5999L30.3 36.9999H33C35.76 37.0031 37.9967 39.2399 38 41.9999V49.9999C38.0005 50.5521 38.4486 50.9995 39.0009 50.999C39.3636 50.9986 39.6978 50.802 39.874 50.4849L44.588 41.9999H50.321L40.571 59.9999H42.846L52.6 41.9999H53C56.8641 41.9955 59.9956 38.864 60 34.9999C60 34.4476 59.5522 33.9999 59 33.9999ZM12 21.9999V18.3279L27.441 11.0619C27.8104 11.9974 28 12.9941 28 13.9999V21.9999C28 26.4181 24.4183 29.9999 20 29.9999C15.5817 29.9999 12 26.4181 12 21.9999ZM20.021 47.3119L16.935 42.9999H23.271L20.021 47.3119ZM24.784 40.9999H15.5L12.637 36.9999H13C15.2091 36.9999 17 35.209 17 32.9999V31.5389C18.9527 32.1535 21.0473 32.1535 23 31.5389V32.9999C23 35.209 24.7909 36.9999 27 36.9999H27.8L24.784 40.9999ZM53 39.9999H45.1C45.5781 37.6733 47.6247 36.0025 50 35.9999H57.9C57.4219 38.3265 55.3753 39.9973 53 39.9999Z" fill="#2671A8"/>
</g>
<defs>
<clipPath id="clip0_29_4860">
<rect width="60" height="60" fill="white"/>
</clipPath>
</defs>
</svg>
